<svg id="Layer_1" data-name="Layer 1" xmlns="http://www.w3.org/2000/svg" viewBox="0 0 525.49 243.9"><defs><style>.cls-1{fill:#f9f9f9;}.cls-1,.cls-15,.cls-17,.cls-2,.cls-3{stroke:#c3c5cd;}.cls-1,.cls-11,.cls-13,.cls-15,.cls-16,.cls-17,.cls-18,.cls-2,.cls-3,.cls-6,.cls-7{stroke-width:1.5px;}.cls-11,.cls-13,.cls-14,.cls-15,.cls-16,.cls-18,.cls-2,.cls-6,.cls-7,.cls-8,.cls-9{fill:none;}.cls-10,.cls-12,.cls-17,.cls-3{fill:#fff;}.cls-4{isolation:isolate;}.cls-5{fill:#8c91a0;}.cls-12,.cls-14,.cls-16,.cls-18,.cls-6,.cls-8{stroke:#c6d6ee;}.cls-10,.cls-11,.cls-13,.cls-7,.cls-9{stroke:#7096d4;}.cls-8{stroke-width:1.5px;}.cls-10,.cls-11,.cls-12,.cls-13,.cls-14,.cls-15,.cls-16,.cls-17,.cls-18,.cls-9{stroke-linejoin:round;}.cls-10,.cls-12,.cls-14,.cls-9{stroke-width:1.5px;}.cls-13,.cls-18{stroke-linecap:round;}.cls-15{stroke-dasharray:3 3;}</style></defs><title>binary</title><g id="g15641"><path id="path15621" class="cls-1" d="M313.8,246.84l99.91-24-99.91-24-99.91,24Z" transform="translate(-38.43 -46.06)"/><path id="path15629" class="cls-2" d="M313.8,246.84V290" transform="translate(-38.43 -46.06)"/><path id="path15633" class="cls-2" d="M215,223.36V290" transform="translate(-38.43 -46.06)"/><path id="path15623" class="cls-3" d="M313.8,246.84l-28.51,26.68-99.91-24,28.51-26.68Z" transform="translate(-38.43 -46.06)"/><path id="path15637" class="cls-2" d="M413.26,223.36V290" transform="translate(-38.43 -46.06)"/><path id="path15627" class="cls-3" d="M313.8,246.84l28.51,26.68,99.91-24-28.51-26.68Z" transform="translate(-38.43 -46.06)"/></g><g id="text15685" class="cls-4"><g class="cls-4"><path class="cls-5" d="M69.5,124.27a2.57,2.57,0,0,1-.82,1.71,2.68,2.68,0,0,1-1.83.6,2.46,2.46,0,0,1-2-.89,3.57,3.57,0,0,1-.75-2.37v-0.67a4,4,0,0,1,.35-1.71,2.61,2.61,0,0,1,1-1.13,2.75,2.75,0,0,1,1.48-.4,2.52,2.52,0,0,1,1.78.62,2.6,2.6,0,0,1,.78,1.72H68.58a2,2,0,0,0-.52-1.21,1.57,1.57,0,0,0-1.12-.38,1.65,1.65,0,0,0-1.38.65,3,3,0,0,0-.5,1.86v0.68a3.08,3.08,0,0,0,.47,1.81,1.53,1.53,0,0,0,1.33.67,1.77,1.77,0,0,0,1.18-.35,1.93,1.93,0,0,0,.54-1.21H69.5Z" transform="translate(-38.43 -46.06)"/><path class="cls-5" d="M71.58,126.49H70.7v-7.37h0.89v7.37Z" transform="translate(-38.43 -46.06)"/><path class="cls-5" d="M76.21,126.49a1.87,1.87,0,0,1-.12-0.55,2,2,0,0,1-1.48.64,1.83,1.83,0,0,1-1.26-.43,1.4,1.4,0,0,1-.49-1.1,1.47,1.47,0,0,1,.62-1.26,2.91,2.91,0,0,1,1.73-.45h0.86v-0.41a1,1,0,0,0-.28-0.74,1.12,1.12,0,0,0-.82-0.28,1.29,1.29,0,0,0-.8.24,0.71,0.71,0,0,0-.32.58H73a1.23,1.23,0,0,1,.28-0.75,1.88,1.88,0,0,1,.75-0.57,2.52,2.52,0,0,1,1-.21,2.05,2.05,0,0,1,1.41.45,1.62,1.62,0,0,1,.53,1.24v2.39a2.92,2.92,0,0,0,.18,1.14v0.08H76.21Zm-1.47-.68a1.55,1.55,0,0,0,.79-0.22,1.31,1.31,0,0,0,.54-0.56V124h-0.7q-1.63,0-1.63,1a0.81,0.81,0,0,0,.28.65A1.07,1.07,0,0,0,74.74,125.81Z" transform="translate(-38.43 -46.06)"/><path class="cls-5" d="M81.37,125.11a0.65,0.65,0,0,0-.27-0.56,2.6,2.6,0,0,0-.94-0.34,4.44,4.44,0,0,1-1.07-.35,1.51,1.51,0,0,1-.58-0.48,1.15,1.15,0,0,1-.19-0.66,1.35,1.35,0,0,1,.54-1.08,2.11,2.11,0,0,1,1.38-.44,2.17,2.17,0,0,1,1.43.46,1.45,1.45,0,0,1,.55,1.17H81.32A0.8,0.8,0,0,0,81,122.2a1.16,1.16,0,0,0-.78-0.26,1.21,1.21,0,0,0-.76.21,0.66,0.66,0,0,0-.27.55,0.54,0.54,0,0,0,.25.48,3.12,3.12,0,0,0,.92.31,4.8,4.8,0,0,1,1.08.36,1.57,1.57,0,0,1,.61.5,1.22,1.22,0,0,1,.2.71,1.33,1.33,0,0,1-.56,1.12,2.33,2.33,0,0,1-1.44.42,2.61,2.61,0,0,1-1.1-.22,1.79,1.79,0,0,1-.75-0.62,1.48,1.48,0,0,1-.27-0.86H79a0.92,0.92,0,0,0,.36.71,1.39,1.39,0,0,0,.88.26,1.43,1.43,0,0,0,.81-0.2A0.63,0.63,0,0,0,81.37,125.11Z" transform="translate(-38.43 -46.06)"/><path class="cls-5" d="M86.44,125.11a0.65,0.65,0,0,0-.27-0.56,2.6,2.6,0,0,0-.94-0.34,4.44,4.44,0,0,1-1.07-.35,1.51,1.51,0,0,1-.58-0.48,1.15,1.15,0,0,1-.19-0.66,1.35,1.35,0,0,1,.54-1.08,2.11,2.11,0,0,1,1.38-.44,2.17,2.17,0,0,1,1.43.46,1.45,1.45,0,0,1,.55,1.17H86.38a0.8,0.8,0,0,0-.31-0.63,1.16,1.16,0,0,0-.78-0.26,1.21,1.21,0,0,0-.76.21,0.66,0.66,0,0,0-.27.55,0.54,0.54,0,0,0,.25.48,3.12,3.12,0,0,0,.92.31,4.8,4.8,0,0,1,1.08.36,1.57,1.57,0,0,1,.61.5,1.22,1.22,0,0,1,.2.71,1.33,1.33,0,0,1-.56,1.12,2.33,2.33,0,0,1-1.44.42,2.61,2.61,0,0,1-1.1-.22,1.79,1.79,0,0,1-.75-0.62,1.48,1.48,0,0,1-.27-0.86h0.89a0.92,0.92,0,0,0,.36.71,1.39,1.39,0,0,0,.88.26,1.43,1.43,0,0,0,.81-0.2A0.63,0.63,0,0,0,86.44,125.11Z" transform="translate(-38.43 -46.06)"/><path class="cls-5" d="M88.48,119.92a0.53,0.53,0,0,1,.13-0.37,0.5,0.5,0,0,1,.39-0.15,0.5,0.5,0,0,1,.39.15,0.52,0.52,0,0,1,.13.37,0.5,0.5,0,0,1-.13.36,0.51,0.51,0,0,1-.39.14,0.51,0.51,0,0,1-.39-0.14A0.51,0.51,0,0,1,88.48,119.92Zm1,6.57H88.56V121.3h0.89v5.19Z" transform="translate(-38.43 -46.06)"/><path class="cls-5" d="M92.94,125.86a1.28,1.28,0,0,0,.83-0.29,1,1,0,0,0,.39-0.72H95a1.61,1.61,0,0,1-.31.85,2,2,0,0,1-.76.64,2.19,2.19,0,0,1-1,.24,2.14,2.14,0,0,1-1.69-.71,2.82,2.82,0,0,1-.63-1.94v-0.15a3.13,3.13,0,0,1,.28-1.35,2.12,2.12,0,0,1,.8-0.92,2.28,2.28,0,0,1,1.23-.33,2.08,2.08,0,0,1,1.45.52,1.87,1.87,0,0,1,.62,1.36H94.17a1.23,1.23,0,0,0-.38-0.83,1.19,1.19,0,0,0-.85-0.32,1.24,1.24,0,0,0-1,.49,2.29,2.29,0,0,0-.37,1.41V124a2.24,2.24,0,0,0,.37,1.38A1.25,1.25,0,0,0,92.94,125.86Z" transform="translate(-38.43 -46.06)"/><path class="cls-5" d="M102.43,123.41H99.5v3.08H98.58v-7h4.33v0.75H99.5v2.39h2.93v0.75Z" transform="translate(-38.43 -46.06)"/><path class="cls-5" d="M109.38,123.22A4.32,4.32,0,0,1,109,125a2.61,2.61,0,0,1-1,1.17,2.7,2.7,0,0,1-3.93-1.16,4.14,4.14,0,0,1-.36-1.74v-0.5a4.27,4.27,0,0,1,.35-1.78,2.59,2.59,0,0,1,2.46-1.59,2.71,2.71,0,0,1,1.48.41,2.61,2.61,0,0,1,1,1.18,4.33,4.33,0,0,1,.35,1.79v0.44Zm-0.92-.45a3.13,3.13,0,0,0-.5-1.91,1.64,1.64,0,0,0-1.4-.66,1.63,1.63,0,0,0-1.37.66,3.07,3.07,0,0,0-.52,1.84v0.51a3.14,3.14,0,0,0,.51,1.89,1.77,1.77,0,0,0,2.77,0,3.12,3.12,0,0,0,.5-1.86v-0.52Z" transform="translate(-38.43 -46.06)"/><path class="cls-5" d="M113.32,123.66h-1.64v2.83h-0.93v-7h2.31a2.74,2.74,0,0,1,1.82.54,1.93,1.93,0,0,1,.64,1.56,1.88,1.88,0,0,1-.35,1.14,2.1,2.1,0,0,1-1,.72l1.64,3v0.06h-1Zm-1.64-.75h1.42a1.6,1.6,0,0,0,1.09-.36,1.2,1.2,0,0,0,.41-1,1.27,1.27,0,0,0-.39-1,1.63,1.63,0,0,0-1.12-.35h-1.41v2.65Z" transform="translate(-38.43 -46.06)"/><path class="cls-5" d="M120.76,123.26h-3v2.48h3.52v0.75h-4.44v-7h4.39v0.75h-3.47v2.25h3v0.75Z" transform="translate(-38.43 -46.06)"/><path class="cls-5" d="M124.67,122.18l1.67-2.68h1.08L125.22,123l2.26,3.52h-1.09l-1.72-2.72-1.73,2.72h-1.09l2.26-3.52-2.21-3.46H123Z" transform="translate(-38.43 -46.06)"/></g></g><g id="text15693" class="cls-4"><g class="cls-4"><path class="cls-5" d="M41,64.07H39.35v2.83H38.43v-7h2.31a2.74,2.74,0,0,1,1.82.54A1.93,1.93,0,0,1,43.19,62a1.88,1.88,0,0,1-.35,1.14,2.1,2.1,0,0,1-1,.72l1.64,3v0.06h-1Zm-1.64-.75h1.42A1.59,1.59,0,0,0,41.86,63a1.2,1.2,0,0,0,.41-1,1.27,1.27,0,0,0-.39-1,1.63,1.63,0,0,0-1.12-.35H39.35v2.65Z" transform="translate(-38.43 -46.06)"/><path class="cls-5" d="M44.34,60.33A0.53,0.53,0,0,1,44.48,60a0.5,0.5,0,0,1,.39-0.15,0.5,0.5,0,0,1,.39.15,0.52,0.52,0,0,1,.13.36,0.5,0.5,0,0,1-.13.36,0.51,0.51,0,0,1-.39.14,0.5,0.5,0,0,1-.39-0.14A0.51,0.51,0,0,1,44.34,60.33Zm1,6.57H44.42V61.7H45.3v5.19Z" transform="translate(-38.43 -46.06)"/><path class="cls-5" d="M49.75,65.52A0.65,0.65,0,0,0,49.47,65a2.61,2.61,0,0,0-.94-0.34,4.49,4.49,0,0,1-1.07-.35,1.52,1.52,0,0,1-.58-0.48,1.15,1.15,0,0,1-.19-0.66A1.35,1.35,0,0,1,47.23,62a2.11,2.11,0,0,1,1.38-.44,2.17,2.17,0,0,1,1.43.46,1.45,1.45,0,0,1,.55,1.17H49.69a0.8,0.8,0,0,0-.31-0.63,1.16,1.16,0,0,0-.78-0.26,1.21,1.21,0,0,0-.76.21,0.66,0.66,0,0,0-.27.55,0.54,0.54,0,0,0,.25.48,3.14,3.14,0,0,0,.92.31,4.8,4.8,0,0,1,1.08.35,1.58,1.58,0,0,1,.61.5,1.22,1.22,0,0,1,.2.71,1.33,1.33,0,0,1-.56,1.12,2.33,2.33,0,0,1-1.44.42,2.61,2.61,0,0,1-1.1-.22,1.8,1.8,0,0,1-.75-0.62,1.49,1.49,0,0,1-.27-0.86H47.4a0.92,0.92,0,0,0,.36.71,1.39,1.39,0,0,0,.88.26,1.43,1.43,0,0,0,.81-0.2A0.63,0.63,0,0,0,49.75,65.52Z" transform="translate(-38.43 -46.06)"/><path class="cls-5" d="M53.24,64.49l-0.56.58v1.82H51.79V59.52h0.89V64l0.48-.57,1.62-1.71h1.08l-2,2.17,2.25,3H55Z" transform="translate(-38.43 -46.06)"/><path class="cls-5" d="M59,64.25a3,3,0,0,1,.57-1.92,1.93,1.93,0,0,1,2.93-.1V59.52h0.89v7.37H62.55l0-.56A1.81,1.81,0,0,1,61,67a1.77,1.77,0,0,1-1.47-.74A3.08,3.08,0,0,1,59,64.32V64.25Zm0.89,0.1a2.3,2.3,0,0,0,.36,1.38,1.18,1.18,0,0,0,1,.5,1.29,1.29,0,0,0,1.23-.76V63.09a1.3,1.3,0,0,0-1.22-.73,1.18,1.18,0,0,0-1,.5A2.53,2.53,0,0,0,59.87,64.35Z" transform="translate(-38.43 -46.06)"/><path class="cls-5" d="M66.89,67a2.27,2.27,0,0,1-1.72-.69,2.57,2.57,0,0,1-.66-1.85V64.28a3.11,3.11,0,0,1,.29-1.38,2.3,2.3,0,0,1,.82-0.95,2.08,2.08,0,0,1,1.15-.34,1.94,1.94,0,0,1,1.57.67,2.89,2.89,0,0,1,.56,1.91v0.37H65.4a1.84,1.84,0,0,0,.45,1.24,1.41,1.41,0,0,0,1.09.47,1.55,1.55,0,0,0,.8-0.19,2,2,0,0,0,.57-0.51L68.85,66A2.18,2.18,0,0,1,66.89,67Zm-0.11-4.65a1.19,1.19,0,0,0-.9.39,1.9,1.9,0,0,0-.45,1.1H68V63.75a1.69,1.69,0,0,0-.36-1A1.12,1.12,0,0,0,66.78,62.34Z" transform="translate(-38.43 -46.06)"/><path class="cls-5" d="M73,65.52A0.65,0.65,0,0,0,72.7,65a2.61,2.61,0,0,0-.94-0.34,4.49,4.49,0,0,1-1.07-.35,1.52,1.52,0,0,1-.58-0.48,1.15,1.15,0,0,1-.19-0.66A1.35,1.35,0,0,1,70.45,62a2.11,2.11,0,0,1,1.38-.44,2.17,2.17,0,0,1,1.43.46,1.45,1.45,0,0,1,.55,1.17H72.91a0.8,0.8,0,0,0-.31-0.63,1.16,1.16,0,0,0-.78-0.26,1.21,1.21,0,0,0-.76.21,0.66,0.66,0,0,0-.27.55,0.54,0.54,0,0,0,.25.48,3.14,3.14,0,0,0,.92.31,4.8,4.8,0,0,1,1.08.35,1.58,1.58,0,0,1,.61.5,1.22,1.22,0,0,1,.2.71,1.33,1.33,0,0,1-.56,1.12,2.33,2.33,0,0,1-1.44.42,2.61,2.61,0,0,1-1.1-.22A1.8,1.8,0,0,1,70,66.15a1.49,1.49,0,0,1-.27-0.86h0.89A0.92,0.92,0,0,0,71,66a1.39,1.39,0,0,0,.88.26,1.43,1.43,0,0,0,.81-0.2A0.63,0.63,0,0,0,73,65.52Z" transform="translate(-38.43 -46.06)"/><path class="cls-5" d="M76.46,64.49l-0.56.58v1.82H75V59.52H75.9V64l0.48-.57L78,61.7h1.08l-2,2.17,2.25,3h-1Z" transform="translate(-38.43 -46.06)"/></g></g><g id="text15697" class="cls-4"><g class="cls-4"><path class="cls-5" d="M96.8,180.68v2.73H95.88v-7h2.58a2.58,2.58,0,0,1,1.8.59,2,2,0,0,1,.65,1.55,2,2,0,0,1-.64,1.57,2.7,2.7,0,0,1-1.82.55H96.8Zm0-.75h1.65a1.65,1.65,0,0,0,1.13-.35,1.27,1.27,0,0,0,.39-1,1.32,1.32,0,0,0-.39-1,1.55,1.55,0,0,0-1.08-.39H96.8v2.74Z" transform="translate(-38.43 -46.06)"/><path class="cls-5" d="M105.09,183.42a1.87,1.87,0,0,1-.12-0.55,2,2,0,0,1-1.48.64,1.83,1.83,0,0,1-1.26-.43,1.4,1.4,0,0,1-.49-1.1,1.47,1.47,0,0,1,.62-1.26,2.91,2.91,0,0,1,1.73-.45h0.86v-0.41a1,1,0,0,0-.28-0.74,1.12,1.12,0,0,0-.82-0.28,1.29,1.29,0,0,0-.8.24,0.71,0.71,0,0,0-.32.58h-0.89a1.23,1.23,0,0,1,.28-0.75,1.88,1.88,0,0,1,.75-0.57,2.52,2.52,0,0,1,1-.21,2.05,2.05,0,0,1,1.41.45,1.62,1.62,0,0,1,.53,1.24v2.39a2.92,2.92,0,0,0,.18,1.14v0.08h-0.93Zm-1.47-.68a1.55,1.55,0,0,0,.79-0.22,1.31,1.31,0,0,0,.54-0.56V180.9h-0.7q-1.63,0-1.63,1a0.81,0.81,0,0,0,.28.65A1.07,1.07,0,0,0,103.62,182.74Z" transform="translate(-38.43 -46.06)"/><path class="cls-5" d="M108.85,182.12l1.21-3.89H111l-2.09,6a1.65,1.65,0,0,1-1.54,1.29h-0.17l-0.33-.06v-0.72l0.24,0a1.18,1.18,0,0,0,.7-0.18,1.32,1.32,0,0,0,.41-0.67l0.2-.53-1.85-5.13h1Z" transform="translate(-38.43 -46.06)"/><path class="cls-5" d="M112.64,178.23l0,0.58a1.91,1.91,0,0,1,1.54-.67,1.48,1.48,0,0,1,1.48.83,2,2,0,0,1,.67-0.6,2,2,0,0,1,1-.23,1.58,1.58,0,0,1,1.74,1.81v3.48h-0.89V180a1.19,1.19,0,0,0-.25-0.83,1.12,1.12,0,0,0-.85-0.28,1.18,1.18,0,0,0-.82.29,1.2,1.2,0,0,0-.38.79v3.44H115V180a1,1,0,0,0-1.11-1.13,1.19,1.19,0,0,0-1.19.74v3.79H111.8v-5.19h0.84Z" transform="translate(-38.43 -46.06)"/><path class="cls-5" d="M122.57,183.51a2.27,2.27,0,0,1-1.72-.69,2.57,2.57,0,0,1-.66-1.85V180.8a3.11,3.11,0,0,1,.29-1.38,2.31,2.31,0,0,1,.82-1,2.08,2.08,0,0,1,1.15-.34,1.94,1.94,0,0,1,1.57.67,2.89,2.89,0,0,1,.56,1.91v0.37h-3.52a1.85,1.85,0,0,0,.45,1.24,1.41,1.41,0,0,0,1.09.47,1.55,1.55,0,0,0,.8-0.19,2,2,0,0,0,.57-0.51l0.54,0.42A2.18,2.18,0,0,1,122.57,183.51Zm-0.11-4.65a1.18,1.18,0,0,0-.9.39,1.9,1.9,0,0,0-.45,1.1h2.6v-0.07a1.69,1.69,0,0,0-.36-1A1.12,1.12,0,0,0,122.46,178.86Z" transform="translate(-38.43 -46.06)"/><path class="cls-5" d="M126.46,178.23l0,0.65a1.89,1.89,0,0,1,1.55-.75q1.65,0,1.66,1.86v3.43h-0.89V180a1.2,1.2,0,0,0-.26-0.83,1,1,0,0,0-.78-0.27,1.28,1.28,0,0,0-.76.23,1.56,1.56,0,0,0-.51.6v3.7h-0.89v-5.19h0.84Z" transform="translate(-38.43 -46.06)"/><path class="cls-5" d="M132.24,177v1.26h1v0.69h-1v3.22a0.72,0.72,0,0,0,.13.47,0.54,0.54,0,0,0,.44.16,2.16,2.16,0,0,0,.42-0.06v0.72a2.59,2.59,0,0,1-.68.09,1.11,1.11,0,0,1-.9-0.36,1.55,1.55,0,0,1-.3-1v-3.22h-0.95v-0.69h0.95V177h0.89Z" transform="translate(-38.43 -46.06)"/><path class="cls-5" d="M139.7,182a0.65,0.65,0,0,0-.27-0.56,2.61,2.61,0,0,0-.95-0.34,4.43,4.43,0,0,1-1.07-.35,1.52,1.52,0,0,1-.59-0.48,1.15,1.15,0,0,1-.19-0.66,1.35,1.35,0,0,1,.54-1.08,2.11,2.11,0,0,1,1.38-.44,2.17,2.17,0,0,1,1.43.46,1.45,1.45,0,0,1,.55,1.17h-0.89a0.8,0.8,0,0,0-.31-0.63,1.16,1.16,0,0,0-.78-0.26,1.21,1.21,0,0,0-.76.21,0.66,0.66,0,0,0-.27.55,0.54,0.54,0,0,0,.25.48,3.13,3.13,0,0,0,.92.31,4.82,4.82,0,0,1,1.08.36,1.57,1.57,0,0,1,.61.5,1.22,1.22,0,0,1,.2.71,1.33,1.33,0,0,1-.56,1.12,2.33,2.33,0,0,1-1.44.42,2.61,2.61,0,0,1-1.1-.22,1.79,1.79,0,0,1-.75-0.62,1.48,1.48,0,0,1-.27-0.86h0.89a0.92,0.92,0,0,0,.36.71,1.39,1.39,0,0,0,.88.26,1.43,1.43,0,0,0,.81-0.2A0.63,0.63,0,0,0,139.7,182Z" transform="translate(-38.43 -46.06)"/><path class="cls-5" d="M143.44,182.12l1.21-3.89h1l-2.09,6a1.65,1.65,0,0,1-1.54,1.29h-0.17l-0.33-.06v-0.72l0.24,0a1.18,1.18,0,0,0,.7-0.18,1.32,1.32,0,0,0,.42-0.67l0.2-.53-1.85-5.13h1Z" transform="translate(-38.43 -46.06)"/><path class="cls-5" d="M149.41,182a0.65,0.65,0,0,0-.27-0.56,2.61,2.61,0,0,0-.95-0.34,4.43,4.43,0,0,1-1.07-.35,1.52,1.52,0,0,1-.59-0.48,1.15,1.15,0,0,1-.19-0.66,1.35,1.35,0,0,1,.54-1.08,2.11,2.11,0,0,1,1.38-.44,2.17,2.17,0,0,1,1.43.46,1.45,1.45,0,0,1,.55,1.17h-0.89a0.8,0.8,0,0,0-.31-0.63,1.16,1.16,0,0,0-.78-0.26,1.21,1.21,0,0,0-.76.21,0.66,0.66,0,0,0-.27.55,0.54,0.54,0,0,0,.25.48,3.13,3.13,0,0,0,.92.31,4.82,4.82,0,0,1,1.08.36,1.57,1.57,0,0,1,.61.5,1.22,1.22,0,0,1,.2.71,1.33,1.33,0,0,1-.56,1.12,2.33,2.33,0,0,1-1.44.42,2.61,2.61,0,0,1-1.1-.22,1.79,1.79,0,0,1-.75-0.62,1.48,1.48,0,0,1-.27-0.86h0.89a0.92,0.92,0,0,0,.36.71,1.39,1.39,0,0,0,.88.26,1.43,1.43,0,0,0,.81-0.2A0.63,0.63,0,0,0,149.41,182Z" transform="translate(-38.43 -46.06)"/><path class="cls-5" d="M152.66,177v1.26h1v0.69h-1v3.22a0.72,0.72,0,0,0,.13.47,0.54,0.54,0,0,0,.44.16,2.16,2.16,0,0,0,.42-0.06v0.72a2.59,2.59,0,0,1-.68.09,1.11,1.11,0,0,1-.9-0.36,1.55,1.55,0,0,1-.3-1v-3.22h-0.95v-0.69h0.95V177h0.89Z" transform="translate(-38.43 -46.06)"/><path class="cls-5" d="M156.82,183.51a2.26,2.26,0,0,1-1.72-.69,2.57,2.57,0,0,1-.66-1.85V180.8a3.11,3.11,0,0,1,.29-1.38,2.31,2.31,0,0,1,.83-1,2.07,2.07,0,0,1,1.15-.34,1.94,1.94,0,0,1,1.57.67,2.89,2.89,0,0,1,.56,1.91v0.37h-3.52a1.85,1.85,0,0,0,.45,1.24,1.41,1.41,0,0,0,1.09.47,1.55,1.55,0,0,0,.8-0.19,2,2,0,0,0,.57-0.51l0.54,0.42A2.18,2.18,0,0,1,156.82,183.51Zm-0.11-4.65a1.18,1.18,0,0,0-.9.39,1.9,1.9,0,0,0-.45,1.1H158v-0.07a1.7,1.7,0,0,0-.36-1A1.12,1.12,0,0,0,156.71,178.86Z" transform="translate(-38.43 -46.06)"/><path class="cls-5" d="M160.7,178.23l0,0.58a1.91,1.91,0,0,1,1.54-.67,1.48,1.48,0,0,1,1.48.83,2,2,0,0,1,.67-0.6,2,2,0,0,1,1-.23,1.58,1.58,0,0,1,1.74,1.81v3.48h-0.89V180a1.19,1.19,0,0,0-.25-0.83,1.12,1.12,0,0,0-.85-0.28,1.18,1.18,0,0,0-.82.29,1.2,1.2,0,0,0-.38.79v3.44h-0.89V180a1,1,0,0,0-1.11-1.13,1.19,1.19,0,0,0-1.19.74v3.79h-0.89v-5.19h0.84Z" transform="translate(-38.43 -46.06)"/><path class="cls-5" d="M171.5,182a0.65,0.65,0,0,0-.27-0.56,2.61,2.61,0,0,0-.95-0.34,4.43,4.43,0,0,1-1.07-.35,1.52,1.52,0,0,1-.59-0.48,1.15,1.15,0,0,1-.19-0.66,1.35,1.35,0,0,1,.54-1.08,2.11,2.11,0,0,1,1.38-.44,2.17,2.17,0,0,1,1.43.46,1.45,1.45,0,0,1,.55,1.17h-0.89a0.8,0.8,0,0,0-.31-0.63,1.16,1.16,0,0,0-.78-0.26,1.21,1.21,0,0,0-.76.21,0.66,0.66,0,0,0-.27.55,0.54,0.54,0,0,0,.25.48,3.13,3.13,0,0,0,.92.31,4.82,4.82,0,0,1,1.08.36,1.57,1.57,0,0,1,.61.5,1.22,1.22,0,0,1,.2.71,1.33,1.33,0,0,1-.56,1.12,2.33,2.33,0,0,1-1.44.42,2.61,2.61,0,0,1-1.1-.22,1.79,1.79,0,0,1-.75-0.62,1.48,1.48,0,0,1-.27-0.86h0.89a0.92,0.92,0,0,0,.36.71,1.39,1.39,0,0,0,.88.26,1.43,1.43,0,0,0,.81-0.2A0.63,0.63,0,0,0,171.5,182Z" transform="translate(-38.43 -46.06)"/></g></g><g id="g9886"><path id="path9884" class="cls-6" d="M439.05,166.24c2.15,0,3.63,1.69,4.07,3.76a12.28,12.28,0,0,1,0,3.21,17.76,17.76,0,0,1-.67,2.68,14.27,14.27,0,0,1-1.11,2.33,0.8,0.8,0,0,0-.23.73,1.58,1.58,0,0,0,1,1.5c0.21,0.1,1,.38,1.7.63,3.78,1.3,5,2.07,5.78,3.57a8.17,8.17,0,0,1,.82,4" transform="translate(-38.43 -46.06)"/><path id="path9882" class="cls-6" d="M420.63,166.24c-2.15,0-3.63,1.69-4.07,3.76a12.28,12.28,0,0,0,0,3.21,17.76,17.76,0,0,0,.67,2.68,14.27,14.27,0,0,0,1.11,2.33,0.8,0.8,0,0,1,.23.73,1.58,1.58,0,0,1-1,1.5c-0.21.1-1,.38-1.7,0.63-3.78,1.3-5,2.07-5.78,3.57a8.17,8.17,0,0,0-.82,4" transform="translate(-38.43 -46.06)"/><path id="path12116" class="cls-7" d="M412.72,191a7.29,7.29,0,0,1,3.21-4.92,27.1,27.1,0,0,1,6-2.52c3.54-1.18,3.84-1.39,4.1-2.88a1,1,0,0,0-.33-1,19,19,0,0,1-3-11.2c0.27-2.63,1.21-4.2,3.11-5.14a9.83,9.83,0,0,1,4.82-.68c3.35,0.3,5.12,1.77,5.77,4.78a17.46,17.46,0,0,1,0,4.67,25.3,25.3,0,0,1-1,3.89,20.54,20.54,0,0,1-1.65,3.39,1.15,1.15,0,0,0-.34,1.06,2.3,2.3,0,0,0,1.46,2.18c0.32,0.14,1.45.56,2.53,0.92,5.61,1.9,7.45,3,8.58,5.19a15.13,15.13,0,0,1,1.22,5.79H412.34A16.53,16.53,0,0,1,412.72,191Z" transform="translate(-38.43 -46.06)"/></g><g id="text12120" class="cls-4"><g class="cls-4"><path class="cls-5" d="M467,181.59H464l-0.66,1.83h-0.95l2.67-7h0.81l2.67,7h-0.95Zm-2.65-.75h2.37l-1.19-3.27Z" transform="translate(-38.43 -46.06)"/><path class="cls-5" d="M469.81,183.42v-4.5H469v-0.69h0.82V177.7a1.77,1.77,0,0,1,.45-1.29,1.69,1.69,0,0,1,1.26-.46,2.35,2.35,0,0,1,.61.08l0,0.72a2.51,2.51,0,0,0-.48,0,0.87,0.87,0,0,0-.67.25,1,1,0,0,0-.24.72v0.55h1.11v0.69H470.7v4.5h-0.89Z" transform="translate(-38.43 -46.06)"/><path class="cls-5" d="M473.22,183.42v-4.5H472.4v-0.69h0.82V177.7a1.77,1.77,0,0,1,.45-1.29,1.69,1.69,0,0,1,1.26-.46,2.35,2.35,0,0,1,.61.08l0,0.72a2.51,2.51,0,0,0-.48,0,0.87,0.87,0,0,0-.67.25,1,1,0,0,0-.24.72v0.55h1.11v0.69h-1.11v4.5h-0.89Z" transform="translate(-38.43 -46.06)"/><path class="cls-5" d="M476.2,176.85a0.53,0.53,0,0,1,.13-0.37,0.5,0.5,0,0,1,.39-0.15,0.51,0.51,0,0,1,.39.15,0.53,0.53,0,0,1,.13.37,0.51,0.51,0,0,1-.13.36,0.51,0.51,0,0,1-.39.14,0.5,0.5,0,0,1-.39-0.14A0.51,0.51,0,0,1,476.2,176.85Zm1,6.57h-0.89v-5.19h0.89v5.19Z" transform="translate(-38.43 -46.06)"/><path class="cls-5" d="M479.54,183.42h-0.89v-7.37h0.89v7.37Z" transform="translate(-38.43 -46.06)"/><path class="cls-5" d="M481,176.85a0.53,0.53,0,0,1,.13-0.37,0.5,0.5,0,0,1,.39-0.15,0.51,0.51,0,0,1,.39.15,0.53,0.53,0,0,1,.13.37,0.51,0.51,0,0,1-.13.36,0.51,0.51,0,0,1-.39.14,0.5,0.5,0,0,1-.39-0.14A0.51,0.51,0,0,1,481,176.85Zm1,6.57H481v-5.19h0.89v5.19Z" transform="translate(-38.43 -46.06)"/><path class="cls-5" d="M486.55,183.42a1.85,1.85,0,0,1-.12-0.55,2,2,0,0,1-1.48.64,1.83,1.83,0,0,1-1.26-.43,1.41,1.41,0,0,1-.49-1.1,1.47,1.47,0,0,1,.62-1.26,2.9,2.9,0,0,1,1.73-.45h0.86v-0.41a1,1,0,0,0-.28-0.74,1.12,1.12,0,0,0-.82-0.28,1.29,1.29,0,0,0-.8.24,0.71,0.71,0,0,0-.32.58H483.3a1.23,1.23,0,0,1,.28-0.75,1.88,1.88,0,0,1,.75-0.57,2.52,2.52,0,0,1,1-.21,2.05,2.05,0,0,1,1.41.45,1.62,1.62,0,0,1,.53,1.24v2.39a2.91,2.91,0,0,0,.18,1.14v0.08h-0.93Zm-1.47-.68a1.55,1.55,0,0,0,.79-0.22,1.3,1.3,0,0,0,.54-0.56V180.9h-0.7q-1.63,0-1.63,1a0.81,0.81,0,0,0,.28.65A1.07,1.07,0,0,0,485.08,182.74Z" transform="translate(-38.43 -46.06)"/><path class="cls-5" d="M489.89,177v1.26h1v0.69h-1v3.22a0.72,0.72,0,0,0,.13.47,0.54,0.54,0,0,0,.44.16,2.16,2.16,0,0,0,.42-0.06v0.72a2.59,2.59,0,0,1-.68.09,1.11,1.11,0,0,1-.9-0.36,1.55,1.55,0,0,1-.3-1v-3.22h-0.95v-0.69H489V177h0.89Z" transform="translate(-38.43 -46.06)"/><path class="cls-5" d="M494.05,183.51a2.26,2.26,0,0,1-1.72-.69,2.57,2.57,0,0,1-.66-1.85V180.8a3.11,3.11,0,0,1,.29-1.38,2.31,2.31,0,0,1,.83-1,2.07,2.07,0,0,1,1.15-.34,1.94,1.94,0,0,1,1.57.67,2.89,2.89,0,0,1,.56,1.91v0.37h-3.52a1.85,1.85,0,0,0,.45,1.24,1.41,1.41,0,0,0,1.09.47,1.55,1.55,0,0,0,.8-0.19,2,2,0,0,0,.57-0.51l0.54,0.42A2.18,2.18,0,0,1,494.05,183.51Zm-0.11-4.65a1.18,1.18,0,0,0-.9.39,1.9,1.9,0,0,0-.45,1.1h2.6v-0.07a1.7,1.7,0,0,0-.36-1A1.12,1.12,0,0,0,493.94,178.86Z" transform="translate(-38.43 -46.06)"/><path class="cls-5" d="M500.59,180.68v2.73h-0.92v-7h2.58a2.59,2.59,0,0,1,1.8.59,2,2,0,0,1,.65,1.55,2,2,0,0,1-.64,1.57,2.7,2.7,0,0,1-1.82.55h-1.65Zm0-.75h1.66a1.65,1.65,0,0,0,1.13-.35,1.27,1.27,0,0,0,.39-1,1.32,1.32,0,0,0-.39-1,1.55,1.55,0,0,0-1.08-.39h-1.71v2.74Z" transform="translate(-38.43 -46.06)"/><path class="cls-5" d="M508.24,179a2.66,2.66,0,0,0-.44,0,1.17,1.17,0,0,0-1.19.74v3.68h-0.89v-5.19h0.86v0.6a1.38,1.38,0,0,1,1.24-.7,0.91,0.91,0,0,1,.39.07V179Z" transform="translate(-38.43 -46.06)"/><path class="cls-5" d="M508.73,180.78a3.06,3.06,0,0,1,.3-1.37,2.23,2.23,0,0,1,.83-0.94,2.27,2.27,0,0,1,1.22-.33,2.19,2.19,0,0,1,1.71.73,2.82,2.82,0,0,1,.65,2v0.06a3.09,3.09,0,0,1-.29,1.36,2.2,2.2,0,0,1-.83.94,2.29,2.29,0,0,1-1.24.34,2.18,2.18,0,0,1-1.71-.73,2.81,2.81,0,0,1-.65-1.94v-0.06Zm0.89,0.11a2.22,2.22,0,0,0,.4,1.39,1.36,1.36,0,0,0,2.15,0,2.43,2.43,0,0,0,.4-1.48,2.21,2.21,0,0,0-.41-1.38,1.35,1.35,0,0,0-2.14,0A2.41,2.41,0,0,0,509.62,180.88Z" transform="translate(-38.43 -46.06)"/><path class="cls-5" d="M514.35,180.78a3,3,0,0,1,.56-1.93,1.93,1.93,0,0,1,3,0l0-.58h0.81v5.07a2.11,2.11,0,0,1-.6,1.59,2.2,2.2,0,0,1-1.6.58,2.66,2.66,0,0,1-1.1-.24,1.89,1.89,0,0,1-.82-0.66l0.46-.53a1.74,1.74,0,0,0,1.4.71,1.36,1.36,0,0,0,1-.37,1.39,1.39,0,0,0,.36-1V182.9a1.82,1.82,0,0,1-1.45.61,1.77,1.77,0,0,1-1.47-.73A3.21,3.21,0,0,1,514.35,180.78Zm0.89,0.1a2.32,2.32,0,0,0,.36,1.38,1.17,1.17,0,0,0,1,.5,1.3,1.3,0,0,0,1.23-.76v-2.37a1.31,1.31,0,0,0-1.22-.74,1.18,1.18,0,0,0-1,.5A2.54,2.54,0,0,0,515.24,180.88Z" transform="translate(-38.43 -46.06)"/><path class="cls-5" d="M522.58,179a2.66,2.66,0,0,0-.44,0,1.17,1.17,0,0,0-1.19.74v3.68h-0.89v-5.19h0.86v0.6a1.38,1.38,0,0,1,1.24-.7,0.91,0.91,0,0,1,.39.07V179Z" transform="translate(-38.43 -46.06)"/><path class="cls-5" d="M526.41,183.42a1.85,1.85,0,0,1-.12-0.55,2,2,0,0,1-1.48.64,1.83,1.83,0,0,1-1.26-.43,1.41,1.41,0,0,1-.49-1.1,1.47,1.47,0,0,1,.62-1.26,2.9,2.9,0,0,1,1.73-.45h0.86v-0.41a1,1,0,0,0-.28-0.74,1.12,1.12,0,0,0-.82-0.28,1.29,1.29,0,0,0-.8.24,0.71,0.71,0,0,0-.32.58h-0.89a1.23,1.23,0,0,1,.28-0.75,1.88,1.88,0,0,1,.75-0.57,2.52,2.52,0,0,1,1-.21,2.05,2.05,0,0,1,1.41.45,1.62,1.62,0,0,1,.53,1.24v2.39a2.91,2.91,0,0,0,.18,1.14v0.08h-0.93Zm-1.47-.68a1.55,1.55,0,0,0,.79-0.22,1.3,1.3,0,0,0,.54-0.56V180.9h-0.7q-1.63,0-1.63,1a0.81,0.81,0,0,0,.28.65A1.07,1.07,0,0,0,524.94,182.74Z" transform="translate(-38.43 -46.06)"/><path class="cls-5" d="M529.38,178.23l0,0.58a1.91,1.91,0,0,1,1.54-.67,1.48,1.48,0,0,1,1.48.83,2,2,0,0,1,.67-0.6,2,2,0,0,1,1-.23,1.58,1.58,0,0,1,1.74,1.81v3.48h-0.89V180a1.19,1.19,0,0,0-.25-0.83,1.12,1.12,0,0,0-.85-0.28,1.18,1.18,0,0,0-.82.29,1.2,1.2,0,0,0-.38.79v3.44h-0.89V180a1,1,0,0,0-1.11-1.13,1.19,1.19,0,0,0-1.19.74v3.79h-0.89v-5.19h0.84Z" transform="translate(-38.43 -46.06)"/></g></g><g id="text12126" class="cls-4"><g class="cls-4"><path class="cls-5" d="M554.17,65.06h-2.93l-0.66,1.83h-0.95l2.67-7h0.81l2.67,7h-0.95Zm-2.65-.75h2.37L552.71,61Z" transform="translate(-38.43 -46.06)"/><path class="cls-5" d="M557.65,64.16v2.73h-0.92v-7h2.58a2.59,2.59,0,0,1,1.8.58,2,2,0,0,1,.65,1.55,2,2,0,0,1-.64,1.57,2.7,2.7,0,0,1-1.82.55h-1.65Zm0-.75h1.66a1.65,1.65,0,0,0,1.13-.35,1.28,1.28,0,0,0,.39-1,1.32,1.32,0,0,0-.39-1,1.55,1.55,0,0,0-1.08-.39h-1.71V63.4Z" transform="translate(-38.43 -46.06)"/><path class="cls-5" d="M563.91,66.89H563v-7h0.92v7Z" transform="translate(-38.43 -46.06)"/></g></g><g id="text12170" class="cls-4"><g class="cls-4"><path class="cls-5" d="M509.14,123a2.57,2.57,0,0,1-.82,1.71,2.68,2.68,0,0,1-1.83.6,2.46,2.46,0,0,1-2-.89,3.57,3.57,0,0,1-.75-2.37v-0.67a4,4,0,0,1,.35-1.71,2.6,2.6,0,0,1,1-1.13,2.75,2.75,0,0,1,1.48-.4,2.53,2.53,0,0,1,1.78.62,2.61,2.61,0,0,1,.78,1.72h-0.93a2,2,0,0,0-.52-1.21,1.57,1.57,0,0,0-1.12-.38,1.65,1.65,0,0,0-1.38.65,3,3,0,0,0-.5,1.86v0.68a3.08,3.08,0,0,0,.48,1.81,1.53,1.53,0,0,0,1.33.67,1.77,1.77,0,0,0,1.18-.35,1.93,1.93,0,0,0,.54-1.21h0.93Z" transform="translate(-38.43 -46.06)"/><path class="cls-5" d="M513,122.44h-1.64v2.83h-0.93v-7h2.31a2.74,2.74,0,0,1,1.82.54,1.93,1.93,0,0,1,.64,1.56,1.89,1.89,0,0,1-.35,1.14,2.11,2.11,0,0,1-1,.72l1.64,3v0.06h-1Zm-1.64-.75h1.42a1.6,1.6,0,0,0,1.09-.36,1.21,1.21,0,0,0,.41-1,1.26,1.26,0,0,0-.39-1,1.63,1.63,0,0,0-1.12-.35h-1.41v2.65Z" transform="translate(-38.43 -46.06)"/><path class="cls-5" d="M517.64,118.28l2.28,5.7,2.28-5.7h1.19v7h-0.92v-2.72l0.09-2.94-2.29,5.66h-0.71l-2.29-5.64,0.09,2.92v2.72h-0.92v-7h1.19Z" transform="translate(-38.43 -46.06)"/></g></g><g id="g12209"><path id="path12211" class="cls-8" d="M489,136.4l-30-30m30,0-30,30m36.16-15H452.87M474,100.24v42.36" transform="translate(-38.43 -46.06)"/><path id="path12213" class="cls-9" d="M474,106.69a14.74,14.74,0,0,0-14.74,14.74h0A14.74,14.74,0,0,0,474,136.16h0a14.74,14.74,0,0,0,14.74-14.74h0A14.74,14.74,0,0,0,474,106.69h0Z" transform="translate(-38.43 -46.06)"/><path id="path12223" class="cls-10" d="M477.73,121.42a3.68,3.68,0,1,1-3.68-3.68A3.68,3.68,0,0,1,477.73,121.42Z" transform="translate(-38.43 -46.06)"/></g><g id="g12242"><path id="rect12233" class="cls-11" d="M188.24,170.54h23.33a2.76,2.76,0,0,1,2.76,2.76v15.35a2.76,2.76,0,0,1-2.76,2.76H188.24a2.76,2.76,0,0,1-2.76-2.76V168.39" transform="translate(-38.43 -46.06)"/><path id="rect12235" class="cls-12" d="M209.12,177.91h7.06v6.75h-7.06A3.38,3.38,0,0,1,209.12,177.91Z" transform="translate(-38.43 -46.06)"/><path id="rect12237" class="cls-13" d="M212.5,166.25H187.63a2.15,2.15,0,0,0,0,4.3h4" transform="translate(-38.43 -46.06)"/></g><g id="g9936"><path id="path9934" class="cls-14" d="M120.36,64.35a16,16,0,1,1-16-16A16,16,0,0,1,120.36,64.35Z" transform="translate(-38.43 -46.06)"/><path id="path9932" class="cls-9" d="M103.82,72v3.07" transform="translate(-38.43 -46.06)"/><path id="path9930" class="cls-9" d="M103.82,56.58v-3" transform="translate(-38.43 -46.06)"/><path id="path12249" class="cls-9" d="M109.76,58.71c-3.37-2.7-10.06-2.91-10.92.78-0.8,3.44,2.54,4.25,5.13,4.81,3.11,0.67,6.53,1.43,5.4,5.08-1,3.35-7.58,3-11,.6" transform="translate(-38.43 -46.06)"/></g><path id="path12267" class="cls-15" d="M131.14,64.33H242.65c46.56,0,65,23,65,64.09V244.53M183.33,121.42h62c35.86,0,50.08,17.84,50.08,49.51v70.52m-67.84-62.93h23.64c22.79,0,31.92,11.4,31.92,31.65V238.7M495.84,64.33H384.95c-46.56,0-65,23-65,64.09V244.53m123.72-123.1H382.3c-35.86,0-50.08,17.84-50.08,49.51v70.52m67.23-62.93h-23c-22.79,0-31.92,11.4-31.92,31.65V238.7" transform="translate(-38.43 -46.06)"/><g id="g9917"><path id="path9915" class="cls-11" d="M168.29,137.7v-4" transform="translate(-38.43 -46.06)"/><path id="path9913" class="cls-11" d="M168.29,117.13v-4" transform="translate(-38.43 -46.06)"/><path id="path9911" class="cls-11" d="M143.73,137.7v-4" transform="translate(-38.43 -46.06)"/><path id="path9909" class="cls-11" d="M143.73,117.13v-4" transform="translate(-38.43 -46.06)"/><path id="path9907" class="cls-16" d="M156,128.49v-4" transform="translate(-38.43 -46.06)"/><path id="path9905" class="cls-16" d="M156,107.92v-4" transform="translate(-38.43 -46.06)"/><path id="path9903" class="cls-11" d="M164.61,117.13H172V133.7h-7.37V117.13Z" transform="translate(-38.43 -46.06)"/><path id="path9901" class="cls-16" d="M152.33,107.92h7.37v16.58h-7.37V107.92Z" transform="translate(-38.43 -46.06)"/><path id="path12301" class="cls-11" d="M140,117.13h7.37V133.7H140V117.13Z" transform="translate(-38.43 -46.06)"/></g><circle id="path12330" class="cls-17" cx="95.48" cy="18.27" r="2.46"/><circle id="circle12332" class="cls-17" cx="147.67" cy="75.36" r="2.46"/><circle id="circle12334" class="cls-17" cx="191.88" cy="132.46" r="2.46"/><circle id="circle12336" class="cls-17" cx="454.66" cy="18.27" r="2.46"/><circle id="circle12338" class="cls-17" cx="402.47" cy="75.36" r="2.46"/><circle id="circle12340" class="cls-17" cx="358.26" cy="132.46" r="2.46"/><g id="g9895"><path id="path9893" class="cls-18" d="M531.81,64.89a8.29,8.29,0,1,1-8.29-8.29h0a8.29,8.29,0,0,1,8.29,8.29h0Z" transform="translate(-38.43 -46.06)"/><path id="path8429" class="cls-13" d="M522.22,82.16l-1.68-3.51-1.83-.59-3.55,2.19-2.06-1.34L513.6,75l-1.29-1.73-4.1,0-1-2.2,2.61-3.25-0.31-2-3.42-2.25,0.39-2.47,3.92-1.23L511.23,58l-1.64-3.76,1.65-1.88,3.88,1.07,1.72-1.09,0.6-4,2.4-.82,2.72,3.12h2l2.88-3.07,2.2,0.68,0.72,4.1,1.63,1,3.93-1.09,1.56,1.86L535.89,58l0.81,1.82,3.92,1.22,0.34,2.33-3.33,2.36-0.36,2,2.57,3.07-0.94,2.38-4.1,0-1.27,1.49L534,78.91l-2.07,1.29-3.41-2.11-2,.55-1.71,3.69-2.48,0-0.1-.2h0Z" transform="translate(-38.43 -46.06)"/></g></svg>