<svg id="Layer_1" data-name="Layer 1" xmlns="http://www.w3.org/2000/svg" viewBox="0 0 380.79 203.07"><defs><style>.cls-1,.cls-11,.cls-14,.cls-17,.cls-18,.cls-19,.cls-2,.cls-22,.cls-23,.cls-24,.cls-25,.cls-4,.cls-5,.cls-6,.cls-7,.cls-9{fill:none;}.cls-1,.cls-11,.cls-18,.cls-4,.cls-6{stroke:#c6d6ee;}.cls-1,.cls-18{stroke-width:1.5px;}.cls-14,.cls-17,.cls-2,.cls-24,.cls-3,.cls-5{stroke:#7096d4;}.cls-10,.cls-11,.cls-14,.cls-15,.cls-18,.cls-19,.cls-2,.cls-21,.cls-23,.cls-24,.cls-25,.cls-3,.cls-5,.cls-6,.cls-7,.cls-8,.cls-9{stroke-linejoin:round;}.cls-17,.cls-2,.cls-3{stroke-width:1.5px;}.cls-10,.cls-15,.cls-21,.cls-3{fill:#fff;}.cls-14,.cls-18,.cls-4,.cls-6,.cls-8,.cls-9{stroke-linecap:round;}.cls-11,.cls-14,.cls-15,.cls-19,.cls-21,.cls-25,.cls-4,.cls-5,.cls-6,.cls-7,.cls-8,.cls-9{stroke-width:1.5px;}.cls-21,.cls-7{stroke:#e4e5e8;}.cls-19,.cls-21,.cls-7{stroke-dasharray:3 3;}.cls-8{fill:#f9f9f9;}.cls-15,.cls-19,.cls-25,.cls-8,.cls-9{stroke:#c3c5cd;}.cls-10,.cls-22,.cls-23{stroke:#fff;stroke-width:16px;}.cls-12{isolation:isolate;}.cls-13{fill:#8c91a0;}.cls-16{fill:#c6d6ee;}.cls-20{fill:#c3c5cd;}.cls-24{stroke-width:1.5px;}.cls-25{stroke-dasharray:3 3;}</style></defs><title>platforma</title><g id="g8657"><path id="path8659" class="cls-1" d="M469.74,241.44l-19.89-19.89m19.89,0-19.89,19.89m24-9.94H445.73m14.06-14.06v28.13" transform="translate(-93.07 -53.49)"/><path id="path8662" class="cls-2" d="M459.79,221.71a9.78,9.78,0,0,0-9.78,9.78h0a9.78,9.78,0,0,0,9.78,9.78h0a9.78,9.78,0,0,0,9.78-9.78h0a9.78,9.78,0,0,0-9.78-9.78h0Z" transform="translate(-93.07 -53.49)"/><path id="path8664" class="cls-3" d="M462.24,231.49a2.45,2.45,0,1,1-2.45-2.45A2.45,2.45,0,0,1,462.24,231.49Z" transform="translate(-93.07 -53.49)"/></g><g id="g9570"><path id="path8674" class="cls-4" d="M359.52,232.72h9.38" transform="translate(-93.07 -53.49)"/><path id="path8680" class="cls-4" d="M373.38,232.72h9.38" transform="translate(-93.07 -53.49)"/><path id="path8670" class="cls-5" d="M359.52,225.79h23.23v15.9H359.52v-15.9Z" transform="translate(-93.07 -53.49)"/><path id="path8672" class="cls-5" d="M367.67,225.79v-3.26h6.93v3.26" transform="translate(-93.07 -53.49)"/><rect id="rect8678" class="cls-6" x="276.24" y="177.19" width="3.67" height="4.08"/></g><path id="path9453" class="cls-7" d="M351.26,104.63l-136.34,78" transform="translate(-93.07 -53.49)"/><path id="path8988-3" class="cls-7" d="M283.09,83.73V203.57" transform="translate(-93.07 -53.49)"/><path id="ellipse8905" class="cls-8" d="M192,143.65V160c0,33.43,40.79,60.53,91.1,60.53s91.1-27.1,91.1-60.53v-16.3c0,33.43-40.79,60.53-91.1,60.53h0c-50.31,0-91.1-27.1-91.1-60.53h0Z" transform="translate(-93.07 -53.49)"/><path id="path9451" class="cls-7" d="M214.92,104.63l136.34,78" transform="translate(-93.07 -53.49)"/><ellipse id="path8732" class="cls-9" cx="190.02" cy="90.16" rx="91.1" ry="60.53"/><g id="g8824"><path id="path9468" class="cls-10" d="M245.79,81.52H265v7.34H245.79V81.52Zm0,7.34H265v7.34H245.79V88.86Zm0,7.34H265v7.34H245.79V96.19Z" transform="translate(-93.07 -53.49)"/><path id="path8746" class="cls-2" d="M245.79,96.19H265v7.34H245.79V96.19Z" transform="translate(-93.07 -53.49)"/><path id="path8748" class="cls-4" d="M249.46,99.86h9.38" transform="translate(-93.07 -53.49)"/><path id="path8752" class="cls-4" d="M261.28,99.86h0" transform="translate(-93.07 -53.49)"/><path id="path8756" class="cls-2" d="M245.79,88.86H265v7.34H245.79V88.86Z" transform="translate(-93.07 -53.49)"/><path id="path8758" class="cls-4" d="M249.46,92.53h9.38" transform="translate(-93.07 -53.49)"/><path id="path8762" class="cls-4" d="M261.28,92.53h0" transform="translate(-93.07 -53.49)"/><path id="path8766" class="cls-2" d="M245.79,81.52H265v7.34H245.79V81.52Z" transform="translate(-93.07 -53.49)"/><path id="path8768" class="cls-4" d="M249.46,85.19h9.38" transform="translate(-93.07 -53.49)"/><path id="path8772" class="cls-4" d="M261.28,85.19h0" transform="translate(-93.07 -53.49)"/></g><g id="g8839"><path id="path9477" class="cls-10" d="M314.2,80.7h-4.1l0,2.85H306l0-2.85h-4.53v2.85c0,12.84,4.06,18,10.6,20.38,6.54-2.33,10.63-7.54,10.6-20.38V80.7h-4.5v3.06H314.2V80.7Z" transform="translate(-93.07 -53.49)"/><path id="path8776" class="cls-5" d="M314.2,80.7h-4.1l0,2.85H306l0-2.85h-4.53v2.85c0,12.84,4.06,18,10.6,20.38,6.54-2.33,10.63-7.54,10.6-20.38V80.7h-4.5v3.06H314.2V80.7Z" transform="translate(-93.07 -53.49)"/><path id="path8778" class="cls-11" d="M318.48,87.23c-0.31,3.87-1.06,6.64-2.09,8.43a8.86,8.86,0,0,1-4.23,3.86,8.86,8.86,0,0,1-4.23-3.86c-1-1.79-1.77-4.59-2.09-8.43h12.64Z" transform="translate(-93.07 -53.49)"/></g><g id="g8802"><ellipse id="ellipse8780" class="cls-5" cx="128.88" cy="77.93" rx="9.58" ry="4.28"/><path id="path8782" class="cls-11" d="M212.37,136.31c0,2.36,4.29,4.28,9.58,4.28s9.58-1.92,9.58-4.28" transform="translate(-93.07 -53.49)"/><path id="path8784" class="cls-11" d="M212.37,141.21c0,2.36,4.29,4.28,9.58,4.28s9.58-1.92,9.58-4.28" transform="translate(-93.07 -53.49)"/><path id="path8786" class="cls-5" d="M212.37,131.42V146.1c0,2.36,4.29,4.28,9.58,4.28s9.58-1.92,9.58-4.28V131.42" transform="translate(-93.07 -53.49)"/></g><g id="text8794" class="cls-12"><g class="cls-12"><path class="cls-13" d="M207.75,160.19v-4.64h1.31a2.1,2.1,0,0,1,1.07.27,1.81,1.81,0,0,1,.72.76,2.49,2.49,0,0,1,.26,1.13V158a2.49,2.49,0,0,1-.25,1.15,1.78,1.78,0,0,1-.72.76,2.24,2.24,0,0,1-1.09.27h-1.28Zm0.61-4.14v3.64H209a1.4,1.4,0,0,0,1.1-.44,1.82,1.82,0,0,0,.39-1.25v-0.27a1.85,1.85,0,0,0-.37-1.23,1.32,1.32,0,0,0-1.05-.44h-0.71Z" transform="translate(-93.07 -53.49)"/><path class="cls-13" d="M214.07,160.19a1.24,1.24,0,0,1-.08-0.36,1.31,1.31,0,0,1-1,.43,1.22,1.22,0,0,1-.84-0.29,0.93,0.93,0,0,1-.33-0.73,1,1,0,0,1,.41-0.84,1.92,1.92,0,0,1,1.15-.3H214v-0.27a0.66,0.66,0,0,0-.19-0.49,0.74,0.74,0,0,0-.54-0.18,0.87,0.87,0,0,0-.53.16,0.47,0.47,0,0,0-.21.39h-0.59a0.81,0.81,0,0,1,.18-0.5,1.24,1.24,0,0,1,.5-0.38,1.67,1.67,0,0,1,.69-0.14,1.36,1.36,0,0,1,.93.3,1.08,1.08,0,0,1,.35.82v1.59a1.94,1.94,0,0,0,.12.75v0.05h-0.62Zm-1-.45a1,1,0,0,0,.53-0.14,0.87,0.87,0,0,0,.36-0.37v-0.71h-0.46q-1.08,0-1.08.63a0.53,0.53,0,0,0,.19.43A0.71,0.71,0,0,0,213.09,159.74Z" transform="translate(-93.07 -53.49)"/><path class="cls-13" d="M216.29,155.91v0.83h0.64v0.46h-0.64v2.14a0.48,0.48,0,0,0,.09.31,0.36,0.36,0,0,0,.29.1l0.28,0v0.47a1.69,1.69,0,0,1-.45.06,0.73,0.73,0,0,1-.6-0.24,1,1,0,0,1-.2-0.68V157.2h-0.63v-0.46h0.63v-0.83h0.59Z" transform="translate(-93.07 -53.49)"/><path class="cls-13" d="M219.74,160.19a1.24,1.24,0,0,1-.08-0.36,1.31,1.31,0,0,1-1,.43,1.22,1.22,0,0,1-.84-0.29,0.93,0.93,0,0,1-.33-0.73,1,1,0,0,1,.41-0.84,1.92,1.92,0,0,1,1.15-.3h0.57v-0.27a0.66,0.66,0,0,0-.19-0.49,0.74,0.74,0,0,0-.54-0.18,0.87,0.87,0,0,0-.53.16,0.47,0.47,0,0,0-.21.39h-0.59a0.81,0.81,0,0,1,.18-0.5,1.24,1.24,0,0,1,.5-0.38,1.67,1.67,0,0,1,.69-0.14,1.36,1.36,0,0,1,.93.3,1.08,1.08,0,0,1,.35.82v1.59a1.94,1.94,0,0,0,.12.75v0.05h-0.62Zm-1-.45a1,1,0,0,0,.53-0.14,0.87,0.87,0,0,0,.36-0.37v-0.71h-0.46q-1.08,0-1.08.63a0.53,0.53,0,0,0,.19.43A0.71,0.71,0,0,0,218.77,159.74Z" transform="translate(-93.07 -53.49)"/><path class="cls-13" d="M225.7,158.5a2,2,0,0,1-.36,1.27,1.16,1.16,0,0,1-1,.48,1.2,1.2,0,0,1-1-.46l0,0.4h-0.54v-4.89h0.59v1.83a1.19,1.19,0,0,1,1-.44,1.17,1.17,0,0,1,1,.47,2.11,2.11,0,0,1,.36,1.3v0.05Zm-0.59-.07a1.59,1.59,0,0,0-.23-0.93,0.77,0.77,0,0,0-.67-0.33,0.86,0.86,0,0,0-.84.54v1.49a0.89,0.89,0,0,0,.84.54,0.77,0.77,0,0,0,.66-0.33A1.69,1.69,0,0,0,225.11,158.43Z" transform="translate(-93.07 -53.49)"/><path class="cls-13" d="M228.57,160.19a1.24,1.24,0,0,1-.08-0.36,1.31,1.31,0,0,1-1,.43,1.22,1.22,0,0,1-.84-0.29,0.93,0.93,0,0,1-.33-0.73,1,1,0,0,1,.41-0.84,1.92,1.92,0,0,1,1.15-.3h0.57v-0.27a0.66,0.66,0,0,0-.19-0.49,0.74,0.74,0,0,0-.54-0.18,0.87,0.87,0,0,0-.53.16,0.47,0.47,0,0,0-.21.39h-0.59a0.81,0.81,0,0,1,.18-0.5,1.24,1.24,0,0,1,.5-0.38,1.67,1.67,0,0,1,.69-0.14,1.36,1.36,0,0,1,.93.3,1.08,1.08,0,0,1,.35.82v1.59a1.94,1.94,0,0,0,.12.75v0.05h-0.62Zm-1-.45a1,1,0,0,0,.53-0.14,0.87,0.87,0,0,0,.36-0.37v-0.71H228q-1.08,0-1.08.63a0.53,0.53,0,0,0,.19.43A0.71,0.71,0,0,0,227.59,159.74Z" transform="translate(-93.07 -53.49)"/><path class="cls-13" d="M232,159.27a0.43,0.43,0,0,0-.18-0.37,1.73,1.73,0,0,0-.63-0.23,2.93,2.93,0,0,1-.71-0.23,1,1,0,0,1-.39-0.32,0.76,0.76,0,0,1-.13-0.44,0.89,0.89,0,0,1,.36-0.72,1.4,1.4,0,0,1,.92-0.29,1.44,1.44,0,0,1,1,.3,1,1,0,0,1,.36.77H232a0.53,0.53,0,0,0-.21-0.42,0.77,0.77,0,0,0-.52-0.17,0.8,0.8,0,0,0-.5.14,0.44,0.44,0,0,0-.18.37,0.36,0.36,0,0,0,.17.32,2.07,2.07,0,0,0,.61.21,3.18,3.18,0,0,1,.71.24,1,1,0,0,1,.41.33,0.81,0.81,0,0,1,.13.47,0.88,0.88,0,0,1-.37.74,1.55,1.55,0,0,1-1,.28,1.73,1.73,0,0,1-.73-0.15,1.19,1.19,0,0,1-.5-0.41,1,1,0,0,1-.18-0.57h0.59a0.61,0.61,0,0,0,.24.47,0.92,0.92,0,0,0,.58.17,1,1,0,0,0,.54-0.14A0.42,0.42,0,0,0,232,159.27Z" transform="translate(-93.07 -53.49)"/><path class="cls-13" d="M234.78,160.25a1.51,1.51,0,0,1-1.14-.46,1.71,1.71,0,0,1-.44-1.23v-0.11a2.07,2.07,0,0,1,.2-0.92,1.52,1.52,0,0,1,.55-0.63,1.38,1.38,0,0,1,.76-0.23,1.29,1.29,0,0,1,1,.44,1.92,1.92,0,0,1,.37,1.27v0.25h-2.33a1.22,1.22,0,0,0,.3.82,0.94,0.94,0,0,0,.72.31,1,1,0,0,0,.53-0.13,1.33,1.33,0,0,0,.38-0.34l0.36,0.28A1.45,1.45,0,0,1,234.78,160.25Zm-0.07-3.09a0.79,0.79,0,0,0-.6.26,1.26,1.26,0,0,0-.3.73h1.73v0a1.12,1.12,0,0,0-.24-0.7A0.74,0.74,0,0,0,234.71,157.16Z" transform="translate(-93.07 -53.49)"/></g></g><g id="text8798" class="cls-12"><g class="cls-12"><path class="cls-13" d="M241.14,110.92h-1.49v4.14H239v-4.14h-1.49v-0.5h3.59v0.5Z" transform="translate(-93.07 -53.49)"/><path class="cls-13" d="M243.16,112.14l-0.29,0a0.78,0.78,0,0,0-.79.49v2.45h-0.59v-3.45h0.57V112a0.92,0.92,0,0,1,.82-0.46,0.61,0.61,0,0,1,.26,0v0.55Z" transform="translate(-93.07 -53.49)"/><path class="cls-13" d="M245.7,115.05a1.24,1.24,0,0,1-.08-0.36,1.31,1.31,0,0,1-1,.43,1.22,1.22,0,0,1-.84-0.29,0.93,0.93,0,0,1-.33-0.73,1,1,0,0,1,.41-0.84A1.92,1.92,0,0,1,245,113h0.57v-0.27a0.66,0.66,0,0,0-.19-0.49,0.74,0.74,0,0,0-.54-0.18,0.87,0.87,0,0,0-.53.16,0.47,0.47,0,0,0-.21.39h-0.59a0.81,0.81,0,0,1,.18-0.5,1.24,1.24,0,0,1,.5-0.38,1.67,1.67,0,0,1,.69-0.14,1.36,1.36,0,0,1,.93.3,1.08,1.08,0,0,1,.35.82v1.59a1.94,1.94,0,0,0,.12.75v0.05H245.7Zm-1-.45a1,1,0,0,0,.53-0.14,0.87,0.87,0,0,0,.36-0.37v-0.71h-0.46q-1.08,0-1.08.63a0.53,0.53,0,0,0,.19.43A0.71,0.71,0,0,0,244.72,114.6Z" transform="translate(-93.07 -53.49)"/><path class="cls-13" d="M247,113.3a2,2,0,0,1,.38-1.28,1.28,1.28,0,0,1,1.94-.07v-1.8h0.59v4.89h-0.54l0-.37a1.2,1.2,0,0,1-1,.43,1.18,1.18,0,0,1-1-.49,2,2,0,0,1-.38-1.28v0Zm0.59,0.07a1.53,1.53,0,0,0,.24.92,0.78,0.78,0,0,0,.67.33,0.86,0.86,0,0,0,.82-0.5v-1.58a0.87,0.87,0,0,0-.81-0.49,0.79,0.79,0,0,0-.67.33A1.68,1.68,0,0,0,247.56,113.37Z" transform="translate(-93.07 -53.49)"/><path class="cls-13" d="M252.23,115.12a1.51,1.51,0,0,1-1.14-.46,1.71,1.71,0,0,1-.44-1.23v-0.11a2.07,2.07,0,0,1,.2-0.92,1.52,1.52,0,0,1,.55-0.63,1.38,1.38,0,0,1,.76-0.23,1.29,1.29,0,0,1,1,.44,1.92,1.92,0,0,1,.37,1.27v0.25h-2.33a1.22,1.22,0,0,0,.3.82,0.94,0.94,0,0,0,.72.31,1,1,0,0,0,.53-0.13,1.33,1.33,0,0,0,.38-0.34l0.36,0.28A1.45,1.45,0,0,1,252.23,115.12ZM252.15,112a0.79,0.79,0,0,0-.6.26,1.26,1.26,0,0,0-.3.73H253v0a1.12,1.12,0,0,0-.24-0.7A0.74,0.74,0,0,0,252.15,112Z" transform="translate(-93.07 -53.49)"/><path class="cls-13" d="M257.87,114.14a0.43,0.43,0,0,0-.18-0.37,1.73,1.73,0,0,0-.63-0.23,2.93,2.93,0,0,1-.71-0.23A1,1,0,0,1,256,113a0.76,0.76,0,0,1-.13-0.44,0.89,0.89,0,0,1,.36-0.72,1.4,1.4,0,0,1,.92-0.29,1.44,1.44,0,0,1,1,.3,1,1,0,0,1,.36.77h-0.59a0.53,0.53,0,0,0-.21-0.42,0.77,0.77,0,0,0-.52-0.17,0.8,0.8,0,0,0-.5.14,0.44,0.44,0,0,0-.18.37,0.36,0.36,0,0,0,.17.32,2.07,2.07,0,0,0,.61.21,3.18,3.18,0,0,1,.71.24,1,1,0,0,1,.41.33,0.81,0.81,0,0,1,.13.47,0.88,0.88,0,0,1-.37.74,1.55,1.55,0,0,1-1,.28,1.73,1.73,0,0,1-.73-0.15,1.19,1.19,0,0,1-.5-0.41,1,1,0,0,1-.18-0.57h0.59a0.61,0.61,0,0,0,.24.47,0.92,0.92,0,0,0,.58.17,1,1,0,0,0,.54-0.14A0.42,0.42,0,0,0,257.87,114.14Z" transform="translate(-93.07 -53.49)"/><path class="cls-13" d="M260.66,115.12a1.51,1.51,0,0,1-1.14-.46,1.71,1.71,0,0,1-.44-1.23v-0.11a2.07,2.07,0,0,1,.2-0.92,1.52,1.52,0,0,1,.55-0.63,1.38,1.38,0,0,1,.76-0.23,1.29,1.29,0,0,1,1,.44,1.92,1.92,0,0,1,.37,1.27v0.25h-2.33a1.22,1.22,0,0,0,.3.82,0.94,0.94,0,0,0,.72.31,1,1,0,0,0,.53-0.13,1.33,1.33,0,0,0,.38-0.34l0.36,0.28A1.45,1.45,0,0,1,260.66,115.12ZM260.59,112a0.79,0.79,0,0,0-.6.26,1.26,1.26,0,0,0-.3.73h1.73v0a1.12,1.12,0,0,0-.24-0.7A0.74,0.74,0,0,0,260.59,112Z" transform="translate(-93.07 -53.49)"/><path class="cls-13" d="M264.35,112.14l-0.29,0a0.78,0.78,0,0,0-.79.49v2.45h-0.59v-3.45h0.57V112a0.92,0.92,0,0,1,.82-0.46,0.61,0.61,0,0,1,.26,0v0.55Z" transform="translate(-93.07 -53.49)"/><path class="cls-13" d="M266.09,114.25l0.85-2.65h0.6l-1.24,3.45h-0.45l-1.25-3.45h0.6Z" transform="translate(-93.07 -53.49)"/><path class="cls-13" d="M269.5,115.12a1.51,1.51,0,0,1-1.14-.46,1.71,1.71,0,0,1-.44-1.23v-0.11a2.07,2.07,0,0,1,.2-0.92,1.52,1.52,0,0,1,.55-0.63,1.38,1.38,0,0,1,.76-0.23,1.29,1.29,0,0,1,1,.44,1.92,1.92,0,0,1,.37,1.27v0.25h-2.33a1.22,1.22,0,0,0,.3.82,0.94,0.94,0,0,0,.72.31,1,1,0,0,0,.53-0.13,1.33,1.33,0,0,0,.38-0.34l0.36,0.28A1.45,1.45,0,0,1,269.5,115.12ZM269.42,112a0.79,0.79,0,0,0-.6.26,1.26,1.26,0,0,0-.3.73h1.73v0a1.12,1.12,0,0,0-.24-0.7A0.74,0.74,0,0,0,269.42,112Z" transform="translate(-93.07 -53.49)"/><path class="cls-13" d="M273.19,112.14l-0.29,0a0.78,0.78,0,0,0-.79.49v2.45h-0.59v-3.45h0.57V112a0.92,0.92,0,0,1,.82-0.46,0.61,0.61,0,0,1,.26,0v0.55Z" transform="translate(-93.07 -53.49)"/></g></g><g id="text8808" class="cls-12"><g class="cls-12"><path class="cls-13" d="M307.45,114.45a1.4,1.4,0,0,1-.66.5,2.66,2.66,0,0,1-1,.17,1.91,1.91,0,0,1-1-.27,1.78,1.78,0,0,1-.68-0.76,2.6,2.6,0,0,1-.25-1.14v-0.4a2.44,2.44,0,0,1,.49-1.62,1.71,1.71,0,0,1,1.38-.58,1.76,1.76,0,0,1,1.17.37,1.61,1.61,0,0,1,.54,1.05h-0.61a1,1,0,0,0-1.09-.92,1.08,1.08,0,0,0-.93.43,2.11,2.11,0,0,0-.32,1.25v0.38a2,2,0,0,0,.36,1.24,1.16,1.16,0,0,0,1,.46,2.14,2.14,0,0,0,.6-0.08,0.94,0.94,0,0,0,.43-0.26v-1h-1.07v-0.5h1.68v1.7Z" transform="translate(-93.07 -53.49)"/><path class="cls-13" d="M310.51,114.71a1.25,1.25,0,0,1-1,.4,1.07,1.07,0,0,1-.84-0.32,1.38,1.38,0,0,1-.29-0.95v-2.24H309v2.23a0.64,0.64,0,0,0,.64.78,0.88,0.88,0,0,0,.9-0.5v-2.51h0.59v3.45h-0.56v-0.34Z" transform="translate(-93.07 -53.49)"/><path class="cls-13" d="M314.1,115.05a1.2,1.2,0,0,1-.08-0.36,1.31,1.31,0,0,1-1,.43,1.22,1.22,0,0,1-.84-0.29,0.93,0.93,0,0,1-.33-0.73,1,1,0,0,1,.41-0.84,1.92,1.92,0,0,1,1.15-.3H314v-0.27a0.66,0.66,0,0,0-.18-0.49,0.74,0.74,0,0,0-.54-0.18,0.87,0.87,0,0,0-.53.16,0.47,0.47,0,0,0-.21.39h-0.59a0.81,0.81,0,0,1,.18-0.5,1.25,1.25,0,0,1,.5-0.38,1.67,1.67,0,0,1,.69-0.14,1.37,1.37,0,0,1,.93.3,1.08,1.08,0,0,1,.35.82v1.59a2,2,0,0,0,.12.75v0.05H314.1Zm-1-.45a1,1,0,0,0,.53-0.14,0.87,0.87,0,0,0,.36-0.37v-0.71h-0.46q-1.08,0-1.08.63a0.53,0.53,0,0,0,.18.43A0.71,0.71,0,0,0,313.13,114.6Z" transform="translate(-93.07 -53.49)"/><path class="cls-13" d="M317.19,112.14l-0.29,0a0.78,0.78,0,0,0-.79.49v2.45h-0.59v-3.45h0.57V112a0.92,0.92,0,0,1,.82-0.46,0.61,0.61,0,0,1,.26,0v0.55Z" transform="translate(-93.07 -53.49)"/><path class="cls-13" d="M317.53,113.3a2,2,0,0,1,.38-1.28,1.28,1.28,0,0,1,1.94-.07v-1.8h0.59v4.89h-0.54l0-.37a1.2,1.2,0,0,1-1,.43,1.18,1.18,0,0,1-1-.49,2,2,0,0,1-.38-1.28v0Zm0.59,0.07a1.52,1.52,0,0,0,.24.92,0.78,0.78,0,0,0,.67.33,0.86,0.86,0,0,0,.82-0.5v-1.58A0.87,0.87,0,0,0,319,112a0.79,0.79,0,0,0-.67.33A1.68,1.68,0,0,0,318.12,113.37Z" transform="translate(-93.07 -53.49)"/></g></g><g id="g8883"><path id="path8885" class="cls-14" d="M345,150.25l-1.12-2.35-1.22-.39L340.27,149l-1.37-.89,0.33-2.61-0.86-1.16-2.73,0L335,142.81l1.74-2.17-0.21-1.34-2.28-1.5,0.26-1.65,2.61-.82,0.55-1.21-1.09-2.51,1.1-1.26,2.59,0.72,1.14-.73,0.4-2.65,1.6-.54,1.81,2.08h1.34l1.92-2,1.47,0.45,0.48,2.74,1.09,0.7,2.62-.73,1,1.24-1.07,2.55,0.54,1.22,2.61,0.82,0.23,1.56-2.22,1.58L355,140.65l1.72,2-0.63,1.59-2.73,0-0.84,1,0.31,2.78-1.38.86-2.28-1.41-1.33.37-1.14,2.46-1.66,0-0.07-.13h0Z" transform="translate(-93.07 -53.49)"/><path id="path8887" class="cls-6" d="M351.35,138.76a5.5,5.5,0,0,1-5.5,5.5h0a5.5,5.5,0,0,1-5.5-5.5h0a5.5,5.5,0,0,1,5.5-5.5h0a5.5,5.5,0,0,1,5.5,5.5h0Z" transform="translate(-93.07 -53.49)"/></g><g id="text8889" class="cls-12"><g class="cls-12"><path class="cls-13" d="M332.79,158.71h-1.94l-0.44,1.21h-0.63l1.77-4.64h0.53l1.77,4.64h-0.63Zm-1.76-.5h1.58L331.82,156Z" transform="translate(-93.07 -53.49)"/><path class="cls-13" d="M336.49,159.58a1.25,1.25,0,0,1-1,.4,1.07,1.07,0,0,1-.84-0.32,1.38,1.38,0,0,1-.29-0.95v-2.24h0.59v2.23a0.64,0.64,0,0,0,.64.78,0.88,0.88,0,0,0,.9-0.5v-2.51h0.59v3.45H336.5v-0.34Z" transform="translate(-93.07 -53.49)"/><path class="cls-13" d="M338.75,155.64v0.83h0.64v0.46h-0.64v2.14a0.48,0.48,0,0,0,.09.31,0.36,0.36,0,0,0,.29.1l0.28,0v0.47a1.69,1.69,0,0,1-.45.06,0.73,0.73,0,0,1-.6-0.24,1,1,0,0,1-.2-0.68v-2.14h-0.63v-0.46h0.63v-0.83h0.59Z" transform="translate(-93.07 -53.49)"/><path class="cls-13" d="M339.87,158.17a2,2,0,0,1,.2-0.91,1.49,1.49,0,0,1,.55-0.62,1.51,1.51,0,0,1,.81-0.22,1.45,1.45,0,0,1,1.14.49,1.87,1.87,0,0,1,.43,1.3v0a2.06,2.06,0,0,1-.19.9,1.46,1.46,0,0,1-.55.62,1.53,1.53,0,0,1-.82.22,1.45,1.45,0,0,1-1.13-.49,1.86,1.86,0,0,1-.44-1.29v0Zm0.59,0.07a1.48,1.48,0,0,0,.27.92,0.9,0.9,0,0,0,1.42,0,1.61,1.61,0,0,0,.26-1,1.48,1.48,0,0,0-.27-0.92,0.9,0.9,0,0,0-1.42,0A1.6,1.6,0,0,0,340.46,158.24Z" transform="translate(-93.07 -53.49)"/><path class="cls-13" d="M346.16,155.64v0.83h0.64v0.46h-0.64v2.14a0.48,0.48,0,0,0,.09.31,0.36,0.36,0,0,0,.29.1l0.28,0v0.47a1.68,1.68,0,0,1-.45.06,0.73,0.73,0,0,1-.6-0.24,1,1,0,0,1-.2-0.68v-2.14h-0.63v-0.46h0.63v-0.83h0.59Z" transform="translate(-93.07 -53.49)"/><path class="cls-13" d="M349.15,157l-0.29,0a0.77,0.77,0,0,0-.79.49v2.45h-0.59v-3.45h0.57v0.4a0.92,0.92,0,0,1,.82-0.46,0.61,0.61,0,0,1,.26,0V157Z" transform="translate(-93.07 -53.49)"/><path class="cls-13" d="M351.69,159.92a1.24,1.24,0,0,1-.08-0.36,1.31,1.31,0,0,1-1,.43,1.22,1.22,0,0,1-.84-0.29,0.93,0.93,0,0,1-.33-0.73,1,1,0,0,1,.41-0.84,1.92,1.92,0,0,1,1.15-.3h0.57v-0.27a0.66,0.66,0,0,0-.19-0.49,0.74,0.74,0,0,0-.54-0.18,0.87,0.87,0,0,0-.53.16,0.47,0.47,0,0,0-.21.39h-0.59a0.81,0.81,0,0,1,.18-0.5,1.24,1.24,0,0,1,.5-0.38,1.67,1.67,0,0,1,.69-0.14,1.36,1.36,0,0,1,.93.3,1.08,1.08,0,0,1,.35.82v1.59a2,2,0,0,0,.12.75v0.05h-0.62Zm-1-.45a1,1,0,0,0,.53-0.14,0.87,0.87,0,0,0,.36-0.37v-0.71h-0.46q-1.08,0-1.08.63a0.53,0.53,0,0,0,.18.43A0.71,0.71,0,0,0,350.71,159.47Z" transform="translate(-93.07 -53.49)"/><path class="cls-13" d="M353,158.17a2,2,0,0,1,.38-1.28,1.19,1.19,0,0,1,1-.48,1.2,1.2,0,0,1,1,.41V155h0.59v4.89h-0.54l0-.37a1.2,1.2,0,0,1-1,.43,1.18,1.18,0,0,1-1-.49,2,2,0,0,1-.38-1.28v0Zm0.59,0.07a1.53,1.53,0,0,0,.24.92,0.78,0.78,0,0,0,.67.33,0.86,0.86,0,0,0,.82-0.5V157.4a0.87,0.87,0,0,0-.81-0.49,0.79,0.79,0,0,0-.68.33A1.68,1.68,0,0,0,353.56,158.24Z" transform="translate(-93.07 -53.49)"/><path class="cls-13" d="M358.22,160a1.5,1.5,0,0,1-1.14-.46,1.71,1.71,0,0,1-.44-1.23v-0.11a2.07,2.07,0,0,1,.2-0.92,1.53,1.53,0,0,1,.55-0.63,1.38,1.38,0,0,1,.76-0.23,1.29,1.29,0,0,1,1,.44,1.92,1.92,0,0,1,.37,1.27v0.25h-2.33a1.22,1.22,0,0,0,.3.82,0.94,0.94,0,0,0,.72.31,1,1,0,0,0,.53-0.13,1.32,1.32,0,0,0,.38-0.34l0.36,0.28A1.45,1.45,0,0,1,358.22,160Zm-0.07-3.09a0.79,0.79,0,0,0-.6.26,1.27,1.27,0,0,0-.3.73H359v0a1.12,1.12,0,0,0-.24-0.7A0.74,0.74,0,0,0,358.15,156.89Z" transform="translate(-93.07 -53.49)"/><path class="cls-13" d="M361.91,157l-0.29,0a0.78,0.78,0,0,0-.79.49v2.45h-0.59v-3.45h0.57v0.4a0.92,0.92,0,0,1,.82-0.46,0.61,0.61,0,0,1,.26,0V157Z" transform="translate(-93.07 -53.49)"/></g></g><circle id="circle8912" class="cls-15" cx="105.85" cy="12.51" r="1.63"/><g id="g8950"><g id="g8938"><path id="path8940" class="cls-6" d="M110.06,63.14c4.48,0,6.73,2.85,6.73,6.52" transform="translate(-93.07 -53.49)"/><path id="path8942" class="cls-6" d="M110.06,66c2.58,0,3.87,1.55,3.87,3.67" transform="translate(-93.07 -53.49)"/><circle id="circle8944" class="cls-16" cx="17.4" cy="15.76" r="1.02"/></g><path id="path8946" class="cls-17" d="M104.42,74.15c-7.22,0-8.18-9.54,0-10.85-2.22-7.43,10.18-12.58,13.65-3.34,4.27-2.41,10.33,1.42,6.81,7.93,4.31,0.61,4,6.2,0,6.26H104.42Z" transform="translate(-93.07 -53.49)"/></g><g id="g8957"><path id="path8934" class="cls-2" d="M171.2,58.66H190V73.34H171.2V58.66Z" transform="translate(-93.07 -53.49)"/><path id="path8936" class="cls-6" d="M168.75,70.89V56.22H187.5" transform="translate(-93.07 -53.49)"/><path id="path8948" class="cls-18" d="M182.22,64l2.24-2.05L186.69,64" transform="translate(-93.07 -53.49)"/></g><g id="text8962" class="cls-12"><g class="cls-12"><path class="cls-13" d="M99.12,85.91V81.27h1.31a2.11,2.11,0,0,1,1.07.27,1.81,1.81,0,0,1,.72.76,2.49,2.49,0,0,1,.26,1.13v0.3a2.48,2.48,0,0,1-.25,1.15,1.78,1.78,0,0,1-.72.76,2.24,2.24,0,0,1-1.09.27H99.12Zm0.61-4.14v3.64h0.64a1.4,1.4,0,0,0,1.1-.44,1.82,1.82,0,0,0,.39-1.25V83.45a1.85,1.85,0,0,0-.37-1.23,1.32,1.32,0,0,0-1.05-.44H99.74Z" transform="translate(-93.07 -53.49)"/><path class="cls-13" d="M105.44,85.91a1.24,1.24,0,0,1-.08-0.36,1.31,1.31,0,0,1-1,.43,1.22,1.22,0,0,1-.84-0.29,0.93,0.93,0,0,1-.33-0.73,1,1,0,0,1,.41-0.84,1.93,1.93,0,0,1,1.15-.3h0.57V83.55a0.66,0.66,0,0,0-.19-0.49,0.74,0.74,0,0,0-.54-0.18,0.86,0.86,0,0,0-.53.16,0.47,0.47,0,0,0-.21.39h-0.59a0.81,0.81,0,0,1,.18-0.5,1.25,1.25,0,0,1,.5-0.38,1.67,1.67,0,0,1,.69-0.14,1.36,1.36,0,0,1,.93.3,1.07,1.07,0,0,1,.35.82V85.1a1.94,1.94,0,0,0,.12.75v0.05h-0.62Zm-1-.45a1,1,0,0,0,.53-0.14,0.87,0.87,0,0,0,.36-0.37V84.24h-0.46q-1.08,0-1.08.63a0.54,0.54,0,0,0,.19.43A0.71,0.71,0,0,0,104.46,85.46Z" transform="translate(-93.07 -53.49)"/><path class="cls-13" d="M107.66,81.63v0.83h0.64v0.46h-0.64v2.14a0.48,0.48,0,0,0,.09.31,0.36,0.36,0,0,0,.29.1l0.28,0v0.48a1.72,1.72,0,0,1-.45.06,0.73,0.73,0,0,1-.6-0.24,1,1,0,0,1-.2-0.68V82.92h-0.63V82.46h0.63V81.63h0.59Z" transform="translate(-93.07 -53.49)"/><path class="cls-13" d="M111.11,85.91a1.24,1.24,0,0,1-.08-0.36,1.31,1.31,0,0,1-1,.43,1.22,1.22,0,0,1-.84-0.29,0.93,0.93,0,0,1-.33-0.73,1,1,0,0,1,.41-0.84,1.93,1.93,0,0,1,1.15-.3H111V83.55a0.66,0.66,0,0,0-.19-0.49,0.74,0.74,0,0,0-.54-0.18,0.86,0.86,0,0,0-.53.16,0.47,0.47,0,0,0-.21.39H109a0.81,0.81,0,0,1,.18-0.5,1.25,1.25,0,0,1,.5-0.38,1.67,1.67,0,0,1,.69-0.14,1.36,1.36,0,0,1,.93.3,1.07,1.07,0,0,1,.35.82V85.1a1.94,1.94,0,0,0,.12.75v0.05h-0.62Zm-1-.45a1,1,0,0,0,.53-0.14,0.87,0.87,0,0,0,.36-0.37V84.24h-0.46q-1.08,0-1.08.63a0.54,0.54,0,0,0,.19.43A0.71,0.71,0,0,0,110.14,85.46Z" transform="translate(-93.07 -53.49)"/><path class="cls-13" d="M117.07,84.22a2.05,2.05,0,0,1-.36,1.27,1.16,1.16,0,0,1-1,.48,1.2,1.2,0,0,1-1-.46l0,0.4h-0.54V81h0.59v1.82a1.19,1.19,0,0,1,1-.44,1.17,1.17,0,0,1,1,.47,2.11,2.11,0,0,1,.36,1.3v0.05Zm-0.59-.07a1.59,1.59,0,0,0-.23-0.93,0.77,0.77,0,0,0-.67-0.33,0.86,0.86,0,0,0-.84.54v1.49a0.89,0.89,0,0,0,.84.54,0.77,0.77,0,0,0,.66-0.33A1.69,1.69,0,0,0,116.48,84.16Z" transform="translate(-93.07 -53.49)"/><path class="cls-13" d="M119.94,85.91a1.24,1.24,0,0,1-.08-0.36,1.31,1.31,0,0,1-1,.43,1.22,1.22,0,0,1-.84-0.29,0.93,0.93,0,0,1-.33-0.73,1,1,0,0,1,.41-0.84,1.93,1.93,0,0,1,1.15-.3h0.57V83.55a0.66,0.66,0,0,0-.19-0.49,0.74,0.74,0,0,0-.54-0.18,0.86,0.86,0,0,0-.53.16,0.47,0.47,0,0,0-.21.39h-0.59a0.81,0.81,0,0,1,.18-0.5,1.25,1.25,0,0,1,.5-0.38,1.67,1.67,0,0,1,.69-0.14,1.36,1.36,0,0,1,.93.3,1.07,1.07,0,0,1,.35.82V85.1a1.94,1.94,0,0,0,.12.75v0.05h-0.62Zm-1-.45a1,1,0,0,0,.53-0.14,0.87,0.87,0,0,0,.36-0.37V84.24h-0.46q-1.08,0-1.08.63a0.54,0.54,0,0,0,.19.43A0.71,0.71,0,0,0,119,85.46Z" transform="translate(-93.07 -53.49)"/><path class="cls-13" d="M123.36,85a0.43,0.43,0,0,0-.18-0.37,1.74,1.74,0,0,0-.63-0.23,3,3,0,0,1-.71-0.23,1,1,0,0,1-.39-0.32,0.76,0.76,0,0,1-.13-0.44,0.89,0.89,0,0,1,.36-0.72,1.4,1.4,0,0,1,.92-0.29,1.44,1.44,0,0,1,1,.3,1,1,0,0,1,.36.77h-0.59a0.53,0.53,0,0,0-.21-0.42,0.77,0.77,0,0,0-.52-0.18,0.81,0.81,0,0,0-.5.14,0.44,0.44,0,0,0-.18.37,0.36,0.36,0,0,0,.17.32,2.08,2.08,0,0,0,.61.21,3.21,3.21,0,0,1,.71.24,1,1,0,0,1,.41.33A0.81,0.81,0,0,1,124,85a0.88,0.88,0,0,1-.37.74,1.55,1.55,0,0,1-1,.28,1.73,1.73,0,0,1-.73-0.15,1.19,1.19,0,0,1-.5-0.41,1,1,0,0,1-.18-0.57h0.59a0.61,0.61,0,0,0,.24.47,0.92,0.92,0,0,0,.58.17,1,1,0,0,0,.54-0.14A0.42,0.42,0,0,0,123.36,85Z" transform="translate(-93.07 -53.49)"/><path class="cls-13" d="M126.15,86a1.51,1.51,0,0,1-1.14-.46,1.71,1.71,0,0,1-.44-1.23V84.17a2.06,2.06,0,0,1,.2-0.92,1.53,1.53,0,0,1,.55-0.63,1.38,1.38,0,0,1,.76-0.23,1.29,1.29,0,0,1,1,.44,1.92,1.92,0,0,1,.37,1.27v0.25h-2.33a1.22,1.22,0,0,0,.3.82,0.94,0.94,0,0,0,.72.31,1,1,0,0,0,.53-0.13,1.32,1.32,0,0,0,.38-0.34l0.36,0.28A1.45,1.45,0,0,1,126.15,86Zm-0.07-3.09a0.79,0.79,0,0,0-.6.26,1.26,1.26,0,0,0-.3.73h1.73v0a1.12,1.12,0,0,0-.24-0.7A0.74,0.74,0,0,0,126.07,82.88Z" transform="translate(-93.07 -53.49)"/></g></g><g id="text8966" class="cls-12"><g class="cls-12"><path class="cls-13" d="M176.57,81.27v3.15a1.48,1.48,0,0,1-.41,1.07A1.66,1.66,0,0,1,175,86h-0.16a1.74,1.74,0,0,1-1.21-.41,1.47,1.47,0,0,1-.46-1.13V81.27h0.6v3.14a1,1,0,0,0,1.07,1.06,1.07,1.07,0,0,0,.79-0.28,1.06,1.06,0,0,0,.28-0.78V81.27h0.61Z" transform="translate(-93.07 -53.49)"/><path class="cls-13" d="M181.08,83.74a2.87,2.87,0,0,1-.21,1.16,1.79,1.79,0,0,1-.6.76l0.83,0.65-0.42.39-1-.78a2,2,0,0,1-.48.06,1.73,1.73,0,0,1-1.63-1,2.76,2.76,0,0,1-.24-1.15V83.45a2.84,2.84,0,0,1,.23-1.18,1.72,1.72,0,0,1,1.63-1.06,1.8,1.8,0,0,1,1,.27,1.75,1.75,0,0,1,.65.78,2.86,2.86,0,0,1,.23,1.19v0.3Zm-0.61-.3a2.11,2.11,0,0,0-.33-1.26,1.18,1.18,0,0,0-1.84,0A2,2,0,0,0,178,83.4v0.34a2.09,2.09,0,0,0,.33,1.25,1.18,1.18,0,0,0,1.84,0,2.07,2.07,0,0,0,.33-1.24V83.44Z" transform="translate(-93.07 -53.49)"/><path class="cls-13" d="M183.72,84h-1.09v1.88H182V81.27h1.53a1.82,1.82,0,0,1,1.21.36,1.28,1.28,0,0,1,.42,1,1.25,1.25,0,0,1-.23.75,1.4,1.4,0,0,1-.65.48l1.09,2v0h-0.66Zm-1.09-.5h0.94a1.06,1.06,0,0,0,.72-0.24,0.8,0.8,0,0,0,.27-0.63,0.84,0.84,0,0,0-.26-0.66,1.08,1.08,0,0,0-.74-0.23h-0.94v1.76Z" transform="translate(-93.07 -53.49)"/></g></g><path id="path8970" class="cls-19" d="M135.94,66h22.37" transform="translate(-93.07 -53.49)"/><circle id="circle8972" class="cls-15" cx="42.26" cy="12.51" r="1.63"/><circle id="circle8974" class="cls-15" cx="66.72" cy="12.51" r="1.63"/><g id="text9032" class="cls-12"><g class="cls-12"><path class="cls-20" d="M97.62,92.19a2.33,2.33,0,0,1-.21,1,1.45,1.45,0,0,1-.58.65l0.74,0.64-0.24.21L96.5,94a1.73,1.73,0,0,1-.47.06,1.48,1.48,0,0,1-1.38-.88,2.27,2.27,0,0,1-.2-1V91.75a2.33,2.33,0,0,1,.2-1A1.46,1.46,0,0,1,96,89.88a1.52,1.52,0,0,1,.83.23,1.49,1.49,0,0,1,.56.65,2.33,2.33,0,0,1,.2,1v0.44Zm-0.34-.44a1.79,1.79,0,0,0-.33-1.15,1.19,1.19,0,0,0-1.81,0,1.81,1.81,0,0,0-.34,1.16v0.42a1.8,1.8,0,0,0,.33,1.14,1.19,1.19,0,0,0,1.82,0,1.82,1.82,0,0,0,.33-1.16V91.75Z" transform="translate(-93.07 -53.49)"/><path class="cls-20" d="M100.35,93.61a1.08,1.08,0,0,1-1,.44,0.93,0.93,0,0,1-.73-0.28,1.23,1.23,0,0,1-.26-0.83V91h0.33V92.9a0.7,0.7,0,0,0,.7.86,0.85,0.85,0,0,0,.92-0.6V91h0.33v3h-0.32V93.61Z" transform="translate(-93.07 -53.49)"/><path class="cls-20" d="M101.37,92.44a1.77,1.77,0,0,1,.17-0.78,1.27,1.27,0,0,1,1.17-.74,1.24,1.24,0,0,1,1,.42,1.63,1.63,0,0,1,.37,1.12v0.07a1.79,1.79,0,0,1-.17.79,1.26,1.26,0,0,1-.48.54,1.3,1.3,0,0,1-.7.19,1.24,1.24,0,0,1-1-.42,1.62,1.62,0,0,1-.37-1.12V92.44Zm0.33,0.09a1.37,1.37,0,0,0,.28.89,0.95,0.95,0,0,0,1.47,0,1.41,1.41,0,0,0,.28-0.92V92.44a1.53,1.53,0,0,0-.13-0.63,1,1,0,0,0-.36-0.44,0.92,0.92,0,0,0-.53-0.16,0.89,0.89,0,0,0-.73.35,1.41,1.41,0,0,0-.28.92v0.06Z" transform="translate(-93.07 -53.49)"/><path class="cls-20" d="M105.26,90.21V91h0.62v0.27h-0.62v2a0.63,0.63,0,0,0,.09.37,0.35,0.35,0,0,0,.3.12l0.27,0V94a1.09,1.09,0,0,1-.36,0,0.6,0.6,0,0,1-.5-0.2,0.94,0.94,0,0,1-.16-0.59v-2h-0.55V91h0.55V90.21h0.33Z" transform="translate(-93.07 -53.49)"/><path class="cls-20" d="M107.75,94.05a1.31,1.31,0,0,1-.69-0.19,1.29,1.29,0,0,1-.48-0.53,1.65,1.65,0,0,1-.17-0.76V92.46a1.77,1.77,0,0,1,.17-0.78,1.34,1.34,0,0,1,.47-0.55,1.16,1.16,0,0,1,.65-0.2,1.09,1.09,0,0,1,.87.38,1.52,1.52,0,0,1,.32,1v0.19h-2.15v0.06a1.26,1.26,0,0,0,.29.85,0.93,0.93,0,0,0,.74.34,1.09,1.09,0,0,0,.47-0.1,1,1,0,0,0,.37-0.31l0.21,0.16A1.22,1.22,0,0,1,107.75,94.05Zm-0.06-2.84a0.83,0.83,0,0,0-.63.28,1.27,1.27,0,0,0-.31.74h1.81v0a1.1,1.1,0,0,0-.25-0.71A0.77,0.77,0,0,0,107.69,91.21Z" transform="translate(-93.07 -53.49)"/><path class="cls-20" d="M111.33,93.23a0.47,0.47,0,0,0-.2-0.4,1.53,1.53,0,0,0-.6-0.24,2.72,2.72,0,0,1-.62-0.19,0.82,0.82,0,0,1-.33-0.27,0.67,0.67,0,0,1-.11-0.38,0.72,0.72,0,0,1,.3-0.59,1.2,1.2,0,0,1,.76-0.23,1.24,1.24,0,0,1,.81.25,0.8,0.8,0,0,1,.31.65h-0.33a0.54,0.54,0,0,0-.22-0.44,1,1,0,0,0-1.09,0,0.45,0.45,0,0,0-.2.38,0.41,0.41,0,0,0,.17.35,1.76,1.76,0,0,0,.6.23,2.83,2.83,0,0,1,.66.22,0.85,0.85,0,0,1,.32.28,0.77,0.77,0,0,1-.2,1,1.31,1.31,0,0,1-.8.23,1.35,1.35,0,0,1-.85-0.25,0.78,0.78,0,0,1-.33-0.65h0.33a0.58,0.58,0,0,0,.25.46,1,1,0,0,0,.6.16,1,1,0,0,0,.56-0.15A0.46,0.46,0,0,0,111.33,93.23Z" transform="translate(-93.07 -53.49)"/><path class="cls-20" d="M114.5,91.78a2.66,2.66,0,0,1-.35-0.52,1,1,0,0,1-.11-0.46,0.9,0.9,0,0,1,.25-0.67,0.93,0.93,0,0,1,.68-0.25,0.88,0.88,0,0,1,.63.22,0.75,0.75,0,0,1,.24.57,1.07,1.07,0,0,1-.46.79l-0.45.35,1.11,1.3a1.73,1.73,0,0,0,.25-0.93h0.31a1.89,1.89,0,0,1-.36,1.17L116.8,94h-0.4L116,93.59a1.61,1.61,0,0,1-.51.34,1.55,1.55,0,0,1-.61.12,1.35,1.35,0,0,1-.92-0.3,1,1,0,0,1-.17-1.35,2.62,2.62,0,0,1,.61-0.59Zm0.44,2a1.18,1.18,0,0,0,.49-0.11,1.37,1.37,0,0,0,.43-0.31L114.72,92l0,0-0.13.1A1.2,1.2,0,0,0,114,93a0.74,0.74,0,0,0,.25.59A1,1,0,0,0,114.93,93.77Zm-0.56-3a1.37,1.37,0,0,0,.38.8l0.37-.28A1.33,1.33,0,0,0,115.4,91a0.59,0.59,0,0,0,.11-0.36,0.49,0.49,0,0,0-.15-0.36,0.55,0.55,0,0,0-.4-0.15,0.56,0.56,0,0,0-.43.18A0.64,0.64,0,0,0,114.37,90.79Z" transform="translate(-93.07 -53.49)"/><path class="cls-20" d="M121.8,94h-0.34l-2.33-3.47V94h-0.35V89.94h0.35l2.33,3.47V89.94h0.34V94Z" transform="translate(-93.07 -53.49)"/><path class="cls-20" d="M123.92,94.05a1.31,1.31,0,0,1-.69-0.19,1.29,1.29,0,0,1-.48-0.53,1.65,1.65,0,0,1-.17-0.76V92.46a1.77,1.77,0,0,1,.17-0.78,1.34,1.34,0,0,1,.47-0.55,1.16,1.16,0,0,1,.65-0.2,1.09,1.09,0,0,1,.87.38,1.52,1.52,0,0,1,.32,1v0.19H122.9v0.06a1.26,1.26,0,0,0,.29.85,0.93,0.93,0,0,0,.74.34,1.09,1.09,0,0,0,.47-0.1,1,1,0,0,0,.37-0.31L125,93.52A1.22,1.22,0,0,1,123.92,94.05Zm-0.06-2.84a0.83,0.83,0,0,0-.63.28,1.27,1.27,0,0,0-.31.74h1.81v0a1.1,1.1,0,0,0-.25-0.71A0.77,0.77,0,0,0,123.86,91.21Z" transform="translate(-93.07 -53.49)"/><path class="cls-20" d="M126.42,93.3l0.05,0.26,0.07-.27L127.27,91h0.28l0.72,2.29,0.08,0.32,0.06-.29L129,91h0.35l-0.88,3h-0.28l-0.77-2.39,0-.16,0,0.17L126.6,94h-0.28l-0.87-3h0.34Z" transform="translate(-93.07 -53.49)"/><path class="cls-20" d="M131.81,93.23a0.47,0.47,0,0,0-.2-0.4,1.53,1.53,0,0,0-.6-0.24,2.72,2.72,0,0,1-.62-0.19,0.82,0.82,0,0,1-.33-0.27,0.67,0.67,0,0,1-.11-0.38,0.72,0.72,0,0,1,.3-0.59,1.2,1.2,0,0,1,.76-0.23,1.24,1.24,0,0,1,.81.25,0.8,0.8,0,0,1,.31.65h-0.33a0.54,0.54,0,0,0-.22-0.44,1,1,0,0,0-1.09,0,0.45,0.45,0,0,0-.2.38,0.41,0.41,0,0,0,.17.35,1.76,1.76,0,0,0,.6.23,2.83,2.83,0,0,1,.66.22,0.85,0.85,0,0,1,.32.28,0.77,0.77,0,0,1-.2,1,1.31,1.31,0,0,1-.8.23,1.35,1.35,0,0,1-.85-0.25,0.78,0.78,0,0,1-.33-0.65h0.33a0.58,0.58,0,0,0,.25.46,1,1,0,0,0,.6.16,1,1,0,0,0,.56-0.15A0.46,0.46,0,0,0,131.81,93.23Z" transform="translate(-93.07 -53.49)"/></g></g><path id="path9090" class="cls-19" d="M194.81,209.7c0-12.64-6.22-19.77-21.93-19.77h-19m-6.52,0H128.29c-15.7,0-21.93,7.12-21.93,19.77" transform="translate(-93.07 -53.49)"/><g id="g9139"><path id="path9093" class="cls-5" d="M94.57,220.49H117.8v16.3H94.57v-16.3Z" transform="translate(-93.07 -53.49)"/><path id="path9095" class="cls-2" d="M102.72,236.79h6.93v4.89h-6.93v-4.89Z" transform="translate(-93.07 -53.49)"/><path id="path9097" class="cls-14" d="M98.64,241.68h15.08" transform="translate(-93.07 -53.49)"/><path id="path9099" class="cls-11" d="M97,222.93h18.34v11.41H97V222.93Z" transform="translate(-93.07 -53.49)"/><path id="path9101" class="cls-6" d="M100.68,231.51v2.84" transform="translate(-93.07 -53.49)"/><path id="path9103" class="cls-6" d="M104.35,229.46v4.89" transform="translate(-93.07 -53.49)"/><path id="path9105" class="cls-6" d="M108,231.51v2.84" transform="translate(-93.07 -53.49)"/><path id="path9107" class="cls-6" d="M111.69,229.47v4.87" transform="translate(-93.07 -53.49)"/></g><g id="g9149"><rect id="rect9109" class="cls-14" x="50.01" y="166.18" width="15.49" height="23.23" rx="1.83" ry="1.83"/><path id="path9111" class="cls-11" d="M156.12,224.56V238h-10.6V224.56h10.6Z" transform="translate(-93.07 -53.49)"/><path id="path9113" class="cls-4" d="M152.46,222.12h-3.27" transform="translate(-93.07 -53.49)"/><circle id="circle9117" class="cls-16" cx="57.75" cy="186.97" r="0.61"/><circle id="circle9119" class="cls-16" cx="54.08" cy="186.97" r="0.61"/><path id="path9121" class="cls-6" d="M148.37,235.18V238" transform="translate(-93.07 -53.49)"/><path id="path9123" class="cls-6" d="M150.82,233.12V238" transform="translate(-93.07 -53.49)"/><path id="path9125" class="cls-6" d="M153.26,235.18V238" transform="translate(-93.07 -53.49)"/><circle id="circle9127" class="cls-16" cx="61.42" cy="186.97" r="0.61"/></g><g id="g9160"><path id="path9129" class="cls-17" d="M186.35,240.87c-7.22,0-8.18-9.54,0-10.85-2.22-7.43,10.18-12.58,13.65-3.34,4.27-2.41,10.33,1.42,6.81,7.93,4.31,0.61,4,6.2,0,6.26H186.35Z" transform="translate(-93.07 -53.49)"/><path id="path9131" class="cls-6" d="M189.54,234.77v2.84" transform="translate(-93.07 -53.49)"/><path id="path9133" class="cls-6" d="M193.21,232.72v4.89" transform="translate(-93.07 -53.49)"/><path id="path9135" class="cls-6" d="M196.88,234.77v2.84" transform="translate(-93.07 -53.49)"/><path id="path9137" class="cls-6" d="M200.55,232.73v4.87" transform="translate(-93.07 -53.49)"/></g><ellipse id="ellipse9424" class="cls-21" cx="190.02" cy="90.16" rx="36.11" ry="23.85"/><path id="path9430" class="cls-22" d="M246.27,179.23c-7.22,0-8.18-9.54,0-10.85-2.22-7.43,10.18-12.58,13.65-3.34,4.27-2.41,10.33,1.42,6.81,7.93,4.31,0.61,4,6.2,0,6.26H246.27Z" transform="translate(-93.07 -53.49)"/><path id="path8788" class="cls-17" d="M246.27,180.54c-7.22,0-8.18-9.54,0-10.85-2.22-7.43,10.18-12.58,13.65-3.34,4.27-2.41,10.33,1.42,6.81,7.93,4.31,0.61,4,6.2,0,6.26H246.27Z" transform="translate(-93.07 -53.49)"/><g id="text8816" class="cls-12"><g class="cls-12"><path class="cls-13" d="M239.18,190.16l0.09,0.61,0.13-.55,0.92-3.24h0.52l0.9,3.24,0.13,0.56,0.1-.62,0.72-3.17h0.61l-1.12,4.64h-0.56l-1-3.38-0.07-.35-0.07.35-1,3.38H239L237.84,187h0.61Z" transform="translate(-93.07 -53.49)"/><path class="cls-13" d="M245.2,191.69a1.51,1.51,0,0,1-1.14-.46,1.71,1.71,0,0,1-.44-1.23v-0.11a2.07,2.07,0,0,1,.2-0.92,1.52,1.52,0,0,1,.55-0.63,1.38,1.38,0,0,1,.76-0.23,1.29,1.29,0,0,1,1,.44,1.92,1.92,0,0,1,.37,1.27v0.25h-2.33a1.22,1.22,0,0,0,.3.82,0.94,0.94,0,0,0,.72.31,1,1,0,0,0,.53-0.13,1.33,1.33,0,0,0,.38-0.34L246.5,191A1.45,1.45,0,0,1,245.2,191.69Zm-0.07-3.09a0.79,0.79,0,0,0-.6.26,1.26,1.26,0,0,0-.3.73H246v0a1.12,1.12,0,0,0-.24-0.7A0.74,0.74,0,0,0,245.13,188.6Z" transform="translate(-93.07 -53.49)"/><path class="cls-13" d="M250.15,189.94a2,2,0,0,1-.36,1.27,1.16,1.16,0,0,1-1,.48,1.2,1.2,0,0,1-1-.46l0,0.4h-0.54v-4.89h0.59v1.83a1.19,1.19,0,0,1,1-.44,1.17,1.17,0,0,1,1,.47,2.11,2.11,0,0,1,.36,1.3v0.05Zm-0.59-.07a1.59,1.59,0,0,0-.23-0.93,0.77,0.77,0,0,0-.67-0.33,0.86,0.86,0,0,0-.84.54v1.49a0.89,0.89,0,0,0,.84.54,0.77,0.77,0,0,0,.66-0.33A1.69,1.69,0,0,0,249.56,189.87Z" transform="translate(-93.07 -53.49)"/><path class="cls-13" d="M254.51,190.71a0.43,0.43,0,0,0-.18-0.37,1.73,1.73,0,0,0-.63-0.23,2.93,2.93,0,0,1-.71-0.23,1,1,0,0,1-.39-0.32,0.76,0.76,0,0,1-.13-0.44,0.89,0.89,0,0,1,.36-0.72,1.4,1.4,0,0,1,.92-0.29,1.44,1.44,0,0,1,1,.3,1,1,0,0,1,.36.77h-0.59a0.53,0.53,0,0,0-.21-0.42,0.77,0.77,0,0,0-.52-0.17,0.8,0.8,0,0,0-.5.14,0.44,0.44,0,0,0-.18.37,0.36,0.36,0,0,0,.17.32,2.07,2.07,0,0,0,.61.21,3.18,3.18,0,0,1,.71.24,1,1,0,0,1,.41.33,0.81,0.81,0,0,1,.13.47,0.88,0.88,0,0,1-.37.74,1.55,1.55,0,0,1-1,.28,1.73,1.73,0,0,1-.73-0.15,1.19,1.19,0,0,1-.5-0.41,1,1,0,0,1-.18-0.57h0.59a0.61,0.61,0,0,0,.24.47,0.92,0.92,0,0,0,.58.17,1,1,0,0,0,.54-0.14A0.42,0.42,0,0,0,254.51,190.71Z" transform="translate(-93.07 -53.49)"/><path class="cls-13" d="M257.3,191.69a1.51,1.51,0,0,1-1.14-.46,1.71,1.71,0,0,1-.44-1.23v-0.11a2.07,2.07,0,0,1,.2-0.92,1.52,1.52,0,0,1,.55-0.63,1.38,1.38,0,0,1,.76-0.23,1.29,1.29,0,0,1,1,.44,1.92,1.92,0,0,1,.37,1.27v0.25h-2.33a1.22,1.22,0,0,0,.3.82,0.94,0.94,0,0,0,.72.31,1,1,0,0,0,.53-0.13,1.33,1.33,0,0,0,.38-0.34L258.6,191A1.45,1.45,0,0,1,257.3,191.69Zm-0.07-3.09a0.79,0.79,0,0,0-.6.26,1.26,1.26,0,0,0-.3.73h1.73v0a1.12,1.12,0,0,0-.24-0.7A0.74,0.74,0,0,0,257.22,188.6Z" transform="translate(-93.07 -53.49)"/><path class="cls-13" d="M261,188.71l-0.29,0a0.78,0.78,0,0,0-.79.49v2.45h-0.59v-3.45h0.57v0.4a0.92,0.92,0,0,1,.82-0.46,0.61,0.61,0,0,1,.26,0v0.55Z" transform="translate(-93.07 -53.49)"/><path class="cls-13" d="M262.72,190.83l0.85-2.65h0.6l-1.24,3.45h-0.45l-1.25-3.45h0.6Z" transform="translate(-93.07 -53.49)"/><path class="cls-13" d="M264.75,187.26a0.35,0.35,0,0,1,.09-0.24,0.33,0.33,0,0,1,.26-0.1,0.34,0.34,0,0,1,.26.1,0.35,0.35,0,0,1,.09.24,0.33,0.33,0,0,1-.09.24,0.34,0.34,0,0,1-.26.1,0.33,0.33,0,0,1-.26-0.1A0.34,0.34,0,0,1,264.75,187.26Zm0.64,4.36H264.8v-3.45h0.59v3.45Z" transform="translate(-93.07 -53.49)"/><path class="cls-13" d="M267.71,191.21a0.85,0.85,0,0,0,.55-0.19,0.67,0.67,0,0,0,.26-0.48h0.56a1.07,1.07,0,0,1-.2.56,1.34,1.34,0,0,1-.5.43,1.44,1.44,0,0,1-.66.16,1.42,1.42,0,0,1-1.12-.47,1.87,1.87,0,0,1-.42-1.29v-0.1a2.07,2.07,0,0,1,.18-0.89,1.41,1.41,0,0,1,.53-0.61,1.51,1.51,0,0,1,.82-0.22,1.38,1.38,0,0,1,1,.35,1.24,1.24,0,0,1,.41.9h-0.56a0.81,0.81,0,0,0-.25-0.55,0.79,0.79,0,0,0-.56-0.21,0.82,0.82,0,0,0-.7.32,1.52,1.52,0,0,0-.25.93V190a1.48,1.48,0,0,0,.25.92A0.83,0.83,0,0,0,267.71,191.21Z" transform="translate(-93.07 -53.49)"/><path class="cls-13" d="M271.17,191.69a1.51,1.51,0,0,1-1.14-.46,1.71,1.71,0,0,1-.44-1.23v-0.11a2.07,2.07,0,0,1,.2-0.92,1.52,1.52,0,0,1,.55-0.63,1.38,1.38,0,0,1,.76-0.23,1.29,1.29,0,0,1,1,.44,1.92,1.92,0,0,1,.37,1.27v0.25h-2.33a1.22,1.22,0,0,0,.3.82,0.94,0.94,0,0,0,.72.31,1,1,0,0,0,.53-0.13,1.33,1.33,0,0,0,.38-0.34l0.36,0.28A1.45,1.45,0,0,1,271.17,191.69Zm-0.07-3.09a0.79,0.79,0,0,0-.6.26,1.26,1.26,0,0,0-.3.73h1.73v0a1.12,1.12,0,0,0-.24-0.7A0.74,0.74,0,0,0,271.1,188.6Z" transform="translate(-93.07 -53.49)"/></g></g><g id="g8867"><path id="path9432" class="cls-23" d="M310.61,157.71v6.93h-3.87l6.52,6.52,6.52-6.52H315.9v-6.93h-5.3Z" transform="translate(-93.07 -53.49)"/><path id="path8869" class="cls-2" d="M303.68,173.61h19.16v7.34H303.68v-7.34Z" transform="translate(-93.07 -53.49)"/><path id="path8871" class="cls-24" d="M310.61,157.71v6.93h-3.87l6.52,6.52,6.52-6.52H315.9v-6.93h-5.3Z" transform="translate(-93.07 -53.49)"/><path id="path8873" class="cls-4" d="M307.34,177.28h9.38" transform="translate(-93.07 -53.49)"/><path id="path8875" class="cls-4" d="M319.17,177.28h0" transform="translate(-93.07 -53.49)"/></g><g id="text8877" class="cls-12"><g class="cls-12"><path class="cls-13" d="M302.8,191.89v-4.64h1.52a1.76,1.76,0,0,1,1.13.31,1.12,1.12,0,0,1,.38.92,0.94,0.94,0,0,1-.19.58,1.19,1.19,0,0,1-.5.39,1.08,1.08,0,0,1,.59.4,1.15,1.15,0,0,1,.22.7,1.24,1.24,0,0,1-.4,1,1.67,1.67,0,0,1-1.14.36H302.8Zm0.61-2.66h0.92A1,1,0,0,0,305,189a0.67,0.67,0,0,0,.24-0.55,0.66,0.66,0,0,0-.22-0.56,1.09,1.09,0,0,0-.68-0.17h-0.91v1.48Zm0,0.49v1.67h1a1,1,0,0,0,.67-0.22,0.85,0.85,0,0,0-.66-1.45h-1Z" transform="translate(-93.07 -53.49)"/><path class="cls-13" d="M308.89,191.89a1.28,1.28,0,0,1-.08-0.36,1.31,1.31,0,0,1-1,.43,1.22,1.22,0,0,1-.84-0.29,0.93,0.93,0,0,1-.33-0.73,1,1,0,0,1,.41-0.84,1.93,1.93,0,0,1,1.15-.3h0.57v-0.27a0.66,0.66,0,0,0-.19-0.49,0.74,0.74,0,0,0-.54-0.18,0.86,0.86,0,0,0-.53.16,0.47,0.47,0,0,0-.21.39h-0.59a0.81,0.81,0,0,1,.18-0.5,1.24,1.24,0,0,1,.5-0.38,1.66,1.66,0,0,1,.69-0.14,1.36,1.36,0,0,1,.93.3,1.08,1.08,0,0,1,.35.82v1.59a1.93,1.93,0,0,0,.12.75v0.05h-0.62Zm-1-.45a1,1,0,0,0,.53-0.14,0.87,0.87,0,0,0,.36-0.37v-0.71h-0.46q-1.08,0-1.08.63a0.53,0.53,0,0,0,.19.43A0.71,0.71,0,0,0,307.92,191.44Z" transform="translate(-93.07 -53.49)"/><path class="cls-13" d="M311.7,191.47a0.85,0.85,0,0,0,.55-0.19,0.67,0.67,0,0,0,.26-0.48h0.56a1.07,1.07,0,0,1-.2.56,1.35,1.35,0,0,1-.5.43,1.44,1.44,0,0,1-.66.16,1.42,1.42,0,0,1-1.12-.47,1.87,1.87,0,0,1-.42-1.29v-0.1a2.07,2.07,0,0,1,.18-0.89,1.41,1.41,0,0,1,.53-0.61,1.51,1.51,0,0,1,.82-0.22,1.38,1.38,0,0,1,1,.35,1.24,1.24,0,0,1,.41.9h-0.56a0.81,0.81,0,0,0-.25-0.55,0.79,0.79,0,0,0-.56-0.21,0.82,0.82,0,0,0-.7.32,1.52,1.52,0,0,0-.25.93v0.11a1.49,1.49,0,0,0,.24.92A0.83,0.83,0,0,0,311.7,191.47Z" transform="translate(-93.07 -53.49)"/><path class="cls-13" d="M314.69,190.29l-0.37.39v1.21h-0.59V187h0.59v3l0.32-.38,1.07-1.13h0.72l-1.34,1.44,1.5,2h-0.69Z" transform="translate(-93.07 -53.49)"/><path class="cls-13" d="M319.16,191.55a1.25,1.25,0,0,1-1,.4,1.07,1.07,0,0,1-.84-0.32,1.39,1.39,0,0,1-.29-0.95v-2.24h0.59v2.23a0.64,0.64,0,0,0,.64.78,0.88,0.88,0,0,0,.9-0.5v-2.51h0.59v3.45h-0.56v-0.34Z" transform="translate(-93.07 -53.49)"/><path class="cls-13" d="M323.54,190.21a2.06,2.06,0,0,1-.36,1.27,1.15,1.15,0,0,1-1,.48,1.26,1.26,0,0,1-1-.4v1.66h-0.59v-4.77h0.54l0,0.38a1.21,1.21,0,0,1,1-.45,1.17,1.17,0,0,1,1,.47,2.08,2.08,0,0,1,.36,1.3v0.05Zm-0.59-.07a1.53,1.53,0,0,0-.25-0.92,0.8,0.8,0,0,0-.68-0.34,0.86,0.86,0,0,0-.8.47V191a0.87,0.87,0,0,0,.81.47,0.8,0.8,0,0,0,.67-0.34A1.67,1.67,0,0,0,323,190.14Z" transform="translate(-93.07 -53.49)"/></g></g><g id="text9418" class="cls-12"><g class="cls-12"><path class="cls-20" d="M271.92,145.86a1.41,1.41,0,0,0-.51-1.14,5.37,5.37,0,0,0-1.86-.8,6.5,6.5,0,0,1-2-.83,2,2,0,0,1-.06-3.28,3.37,3.37,0,0,1,2.1-.62,3.47,3.47,0,0,1,1.55.33,2.53,2.53,0,0,1,1.06.93,2.44,2.44,0,0,1,.38,1.33h-0.74a1.83,1.83,0,0,0-.61-1.43,2.37,2.37,0,0,0-1.64-.54,2.58,2.58,0,0,0-1.59.45,1.39,1.39,0,0,0-.59,1.16,1.32,1.32,0,0,0,.53,1.08,4.92,4.92,0,0,0,1.7.74,8,8,0,0,1,1.77.66,2.52,2.52,0,0,1,.91.82,2.06,2.06,0,0,1,.3,1.13,2,2,0,0,1-.82,1.65,3.5,3.5,0,0,1-2.16.62,4.24,4.24,0,0,1-1.69-.33,2.57,2.57,0,0,1-1.16-.92,2.37,2.37,0,0,1-.4-1.36h0.73a1.74,1.74,0,0,0,.69,1.45,2.9,2.9,0,0,0,1.83.53,2.71,2.71,0,0,0,1.63-.45A1.4,1.4,0,0,0,271.92,145.86Z" transform="translate(-93.07 -53.49)"/><path class="cls-20" d="M276.57,148.12a2.81,2.81,0,0,1-1.49-.41,2.77,2.77,0,0,1-1-1.13,3.52,3.52,0,0,1-.37-1.63V144.7A3.8,3.8,0,0,1,274,143a2.88,2.88,0,0,1,1-1.17,2.48,2.48,0,0,1,1.4-.43,2.33,2.33,0,0,1,1.87.8,3.26,3.26,0,0,1,.69,2.19v0.4h-4.61V145a2.71,2.71,0,0,0,.63,1.83,2,2,0,0,0,1.59.73,2.34,2.34,0,0,0,1-.21,2.24,2.24,0,0,0,.8-0.67l0.45,0.34A2.61,2.61,0,0,1,276.57,148.12ZM276.44,142a1.78,1.78,0,0,0-1.36.59,2.73,2.73,0,0,0-.67,1.59h3.88v-0.08a2.37,2.37,0,0,0-.53-1.52A1.65,1.65,0,0,0,276.44,142Z" transform="translate(-93.07 -53.49)"/><path class="cls-20" d="M283.37,142.15a2.72,2.72,0,0,0-.48,0,1.75,1.75,0,0,0-1.13.37,2,2,0,0,0-.66,1.08V148h-0.71v-6.46h0.7v1a1.9,1.9,0,0,1,1.82-1.15,1.18,1.18,0,0,1,.47.08Z" transform="translate(-93.07 -53.49)"/><path class="cls-20" d="M286.62,147l2-5.48h0.73L286.91,148h-0.58l-2.42-6.46h0.73Z" transform="translate(-93.07 -53.49)"/><path class="cls-20" d="M292.92,148.12a2.81,2.81,0,0,1-1.49-.41,2.77,2.77,0,0,1-1-1.13A3.52,3.52,0,0,1,290,145V144.7a3.8,3.8,0,0,1,.36-1.68,2.88,2.88,0,0,1,1-1.17,2.48,2.48,0,0,1,1.4-.43,2.33,2.33,0,0,1,1.87.8,3.26,3.26,0,0,1,.69,2.19v0.4h-4.61V145a2.71,2.71,0,0,0,.63,1.83,2,2,0,0,0,1.59.73,2.34,2.34,0,0,0,1-.21,2.24,2.24,0,0,0,.8-0.67L295.2,147A2.61,2.61,0,0,1,292.92,148.12ZM292.78,142a1.78,1.78,0,0,0-1.36.59,2.73,2.73,0,0,0-.67,1.59h3.88v-0.08a2.37,2.37,0,0,0-.53-1.52A1.65,1.65,0,0,0,292.78,142Z" transform="translate(-93.07 -53.49)"/><path class="cls-20" d="M299.72,142.15a2.72,2.72,0,0,0-.48,0,1.75,1.75,0,0,0-1.13.37,2,2,0,0,0-.66,1.08V148h-0.71v-6.46h0.7v1a1.9,1.9,0,0,1,1.82-1.15,1.18,1.18,0,0,1,.47.08Z" transform="translate(-93.07 -53.49)"/></g></g><path id="path9481" class="cls-19" d="M190.15,150H176.7" transform="translate(-93.07 -53.49)"/><path id="path9483" class="cls-8" d="M127.19,143.61V153c0,8.69,10.68,15.74,23.85,15.74s23.85-7,23.85-15.74v-9.37c0,8.69-10.68,15.74-23.85,15.74S127.19,152.3,127.19,143.61Z" transform="translate(-93.07 -53.49)"/><ellipse id="ellipse9485" class="cls-9" cx="57.97" cy="90.16" rx="23.85" ry="15.7"/><g id="text9489" class="cls-12"><g class="cls-12"><path class="cls-20" d="M137.72,144H135v2.71h-0.49v-5.8h3.59v0.41H135v2.26h2.7V144Z" transform="translate(-93.07 -53.49)"/><path class="cls-20" d="M140.89,142.77l-0.32,0a1.16,1.16,0,0,0-.75.25,1.36,1.36,0,0,0-.44.72v3H138.9v-4.31h0.47V143a1.27,1.27,0,0,1,1.21-.76,0.79,0.79,0,0,1,.31.05v0.43Z" transform="translate(-93.07 -53.49)"/><path class="cls-20" d="M141.3,144.45a2.54,2.54,0,0,1,.24-1.12,1.81,1.81,0,0,1,1.68-1.05,1.77,1.77,0,0,1,1.39.6,2.32,2.32,0,0,1,.53,1.6v0.1a2.56,2.56,0,0,1-.24,1.13,1.79,1.79,0,0,1-.68.77,1.86,1.86,0,0,1-1,.27,1.77,1.77,0,0,1-1.39-.6,2.32,2.32,0,0,1-.54-1.6v-0.09Zm0.48,0.13a2,2,0,0,0,.4,1.27,1.35,1.35,0,0,0,2.09,0,2,2,0,0,0,.4-1.31v-0.09a2.19,2.19,0,0,0-.18-0.9,1.47,1.47,0,0,0-.51-0.63,1.32,1.32,0,0,0-.76-0.22,1.27,1.27,0,0,0-1,.5,2,2,0,0,0-.4,1.31v0.09Z" transform="translate(-93.07 -53.49)"/><path class="cls-20" d="M146.58,142.36l0,0.74a1.71,1.71,0,0,1,.6-0.61,1.57,1.57,0,0,1,.8-0.21,1.29,1.29,0,0,1,1,.39,1.76,1.76,0,0,1,.34,1.17v2.83H148.9v-2.83a1.32,1.32,0,0,0-.24-0.86,1,1,0,0,0-.77-0.28,1.2,1.2,0,0,0-.78.28,1.62,1.62,0,0,0-.5.75v2.95h-0.47v-4.31h0.45Z" transform="translate(-93.07 -53.49)"/><path class="cls-20" d="M151.34,141.26v1.1h0.89v0.39h-0.89v2.87a0.9,0.9,0,0,0,.13.53,0.5,0.5,0,0,0,.43.18l0.39,0,0,0.39a1.55,1.55,0,0,1-.51.07,0.85,0.85,0,0,1-.71-0.29,1.34,1.34,0,0,1-.22-0.84v-2.87h-0.79v-0.39h0.79v-1.1h0.48Z" transform="translate(-93.07 -53.49)"/><path class="cls-20" d="M154.7,144.31H152.8v-0.4h1.91v0.4Z" transform="translate(-93.07 -53.49)"/><path class="cls-20" d="M157.22,146.75a1.87,1.87,0,0,1-1-.27,1.84,1.84,0,0,1-.69-0.75,2.35,2.35,0,0,1-.25-1.08v-0.17a2.54,2.54,0,0,1,.24-1.12,1.93,1.93,0,0,1,.67-0.78,1.66,1.66,0,0,1,.93-0.28,1.56,1.56,0,0,1,1.24.54,2.17,2.17,0,0,1,.46,1.46v0.27h-3.07v0.09a1.8,1.8,0,0,0,.42,1.22,1.34,1.34,0,0,0,1.06.49,1.55,1.55,0,0,0,.67-0.14,1.5,1.5,0,0,0,.53-0.45l0.3,0.23A1.74,1.74,0,0,1,157.22,146.75Zm-0.09-4.06a1.19,1.19,0,0,0-.91.39,1.82,1.82,0,0,0-.45,1.06h2.58v-0.05a1.58,1.58,0,0,0-.35-1A1.1,1.1,0,0,0,157.14,142.69Z" transform="translate(-93.07 -53.49)"/><path class="cls-20" d="M160.22,142.36l0,0.74a1.71,1.71,0,0,1,.6-0.61,1.57,1.57,0,0,1,.8-0.21,1.29,1.29,0,0,1,1,.39,1.76,1.76,0,0,1,.34,1.17v2.83h-0.47v-2.83a1.32,1.32,0,0,0-.24-0.86,1,1,0,0,0-.77-0.28,1.2,1.2,0,0,0-.78.28,1.62,1.62,0,0,0-.5.75v2.95h-0.47v-4.31h0.45Z" transform="translate(-93.07 -53.49)"/><path class="cls-20" d="M164.05,144.48a2.6,2.6,0,0,1,.45-1.6,1.44,1.44,0,0,1,1.22-.59A1.5,1.5,0,0,1,167,143v-2.42h0.47v6.11h-0.45l0-.57a1.54,1.54,0,0,1-1.35.65,1.44,1.44,0,0,1-1.2-.6,2.61,2.61,0,0,1-.46-1.62v-0.06Zm0.48,0.08a2.24,2.24,0,0,0,.33,1.3,1.07,1.07,0,0,0,.93.48,1.28,1.28,0,0,0,1.25-.78v-2a1.27,1.27,0,0,0-1.24-.84,1.08,1.08,0,0,0-.94.47A2.4,2.4,0,0,0,164.54,144.56Z" transform="translate(-93.07 -53.49)"/></g></g><g id="text9503" class="cls-12"><g class="cls-12"><path class="cls-13" d="M103,253.44v1.82h-0.61v-4.64h1.71a1.72,1.72,0,0,1,1.19.39,1.32,1.32,0,0,1,.43,1,1.3,1.3,0,0,1-.42,1,1.79,1.79,0,0,1-1.21.36H103Zm0-.5h1.1a1.1,1.1,0,0,0,.75-0.23,0.84,0.84,0,0,0,.26-0.67,0.87,0.87,0,0,0-.26-0.66,1,1,0,0,0-.72-0.26H103v1.82Z" transform="translate(-93.07 -53.49)"/><path class="cls-13" d="M109.95,253.78a1.7,1.7,0,0,1-.54,1.14,1.78,1.78,0,0,1-1.21.4,1.63,1.63,0,0,1-1.32-.59,2.37,2.37,0,0,1-.5-1.58v-0.45a2.64,2.64,0,0,1,.23-1.14,1.72,1.72,0,0,1,.65-0.75,1.83,1.83,0,0,1,1-.26,1.68,1.68,0,0,1,1.18.41,1.73,1.73,0,0,1,.52,1.14h-0.61a1.33,1.33,0,0,0-.35-0.8,1,1,0,0,0-.74-0.25,1.09,1.09,0,0,0-.92.43,2,2,0,0,0-.33,1.23v0.45a2,2,0,0,0,.32,1.2,1,1,0,0,0,.88.45,1.18,1.18,0,0,0,.78-0.23,1.28,1.28,0,0,0,.36-0.8h0.61Z" transform="translate(-93.07 -53.49)"/></g></g><g id="text9507" class="cls-12"><g class="cls-12"><path class="cls-13" d="M190.4,253.79l0.09,0.61,0.13-.55,0.92-3.24h0.52l0.9,3.24,0.13,0.56,0.1-.62,0.72-3.17h0.61l-1.12,4.64h-0.56l-1-3.38-0.07-.35-0.07.35-1,3.38h-0.56l-1.12-4.64h0.61Z" transform="translate(-93.07 -53.49)"/><path class="cls-13" d="M196.42,255.32a1.51,1.51,0,0,1-1.14-.46,1.71,1.71,0,0,1-.44-1.23v-0.11a2.07,2.07,0,0,1,.2-0.92,1.52,1.52,0,0,1,.55-0.63,1.38,1.38,0,0,1,.76-0.23,1.29,1.29,0,0,1,1,.44,1.92,1.92,0,0,1,.37,1.27v0.25h-2.33a1.22,1.22,0,0,0,.3.82,0.94,0.94,0,0,0,.72.31,1,1,0,0,0,.53-0.13,1.33,1.33,0,0,0,.38-0.34l0.36,0.28A1.45,1.45,0,0,1,196.42,255.32Zm-0.07-3.09a0.79,0.79,0,0,0-.6.26,1.26,1.26,0,0,0-.3.73h1.73v0a1.12,1.12,0,0,0-.24-0.7A0.74,0.74,0,0,0,196.35,252.23Z" transform="translate(-93.07 -53.49)"/><path class="cls-13" d="M201.37,253.57a2,2,0,0,1-.36,1.27,1.16,1.16,0,0,1-1,.48,1.2,1.2,0,0,1-1-.46l0,0.4h-0.54v-4.89H199v1.83a1.19,1.19,0,0,1,1-.44,1.17,1.17,0,0,1,1,.47,2.11,2.11,0,0,1,.36,1.3v0.05Zm-0.59-.07a1.59,1.59,0,0,0-.23-0.93,0.77,0.77,0,0,0-.67-0.33,0.86,0.86,0,0,0-.84.54v1.49a0.89,0.89,0,0,0,.84.54,0.77,0.77,0,0,0,.66-0.33A1.69,1.69,0,0,0,200.78,253.5Z" transform="translate(-93.07 -53.49)"/></g></g><g id="text9511" class="cls-12"><g class="cls-12"><path class="cls-13" d="M142.15,250.62l1.52,3.78,1.52-3.78H146v4.64h-0.61v-1.81l0.06-1.95-1.52,3.75h-0.47l-1.52-3.75,0.06,1.94v1.81h-0.61v-4.64h0.79Z" transform="translate(-93.07 -53.49)"/><path class="cls-13" d="M146.81,253.5a2,2,0,0,1,.2-0.91,1.49,1.49,0,0,1,.55-0.62,1.51,1.51,0,0,1,.81-0.22,1.45,1.45,0,0,1,1.14.49,1.87,1.87,0,0,1,.44,1.3v0a2.05,2.05,0,0,1-.19.9,1.46,1.46,0,0,1-.55.62,1.53,1.53,0,0,1-.82.22,1.45,1.45,0,0,1-1.14-.49,1.86,1.86,0,0,1-.44-1.29v0Zm0.59,0.07a1.47,1.47,0,0,0,.27.92,0.9,0.9,0,0,0,1.43,0,1.61,1.61,0,0,0,.26-1,1.47,1.47,0,0,0-.27-0.92,0.86,0.86,0,0,0-.71-0.35,0.85,0.85,0,0,0-.7.35A1.6,1.6,0,0,0,147.4,253.57Z" transform="translate(-93.07 -53.49)"/><path class="cls-13" d="M153.6,253.57a2,2,0,0,1-.36,1.27,1.16,1.16,0,0,1-1,.48,1.2,1.2,0,0,1-1-.46l0,0.4h-0.54v-4.89h0.59v1.83a1.19,1.19,0,0,1,1-.44,1.17,1.17,0,0,1,1,.47,2.11,2.11,0,0,1,.36,1.3v0.05ZM153,253.5a1.59,1.59,0,0,0-.23-0.93,0.77,0.77,0,0,0-.67-0.33,0.86,0.86,0,0,0-.84.54v1.49a0.89,0.89,0,0,0,.84.54,0.77,0.77,0,0,0,.66-0.33A1.69,1.69,0,0,0,153,253.5Z" transform="translate(-93.07 -53.49)"/><path class="cls-13" d="M154.35,250.9a0.35,0.35,0,0,1,.09-0.24,0.33,0.33,0,0,1,.26-0.1,0.34,0.34,0,0,1,.26.1,0.35,0.35,0,0,1,.09.24,0.33,0.33,0,0,1-.09.24,0.34,0.34,0,0,1-.26.1,0.33,0.33,0,0,1-.26-0.1A0.34,0.34,0,0,1,154.35,250.9Zm0.64,4.36H154.4v-3.45H155v3.45Z" transform="translate(-93.07 -53.49)"/><path class="cls-13" d="M156.57,255.26H156v-4.89h0.59v4.89Z" transform="translate(-93.07 -53.49)"/><path class="cls-13" d="M158.94,255.32a1.51,1.51,0,0,1-1.14-.46,1.71,1.71,0,0,1-.44-1.23v-0.11a2.07,2.07,0,0,1,.2-0.92,1.52,1.52,0,0,1,.55-0.63,1.38,1.38,0,0,1,.76-0.23,1.29,1.29,0,0,1,1,.44,1.92,1.92,0,0,1,.37,1.27v0.25h-2.33a1.22,1.22,0,0,0,.3.82,0.94,0.94,0,0,0,.72.31,1,1,0,0,0,.53-0.13,1.33,1.33,0,0,0,.38-0.34l0.36,0.28A1.45,1.45,0,0,1,158.94,255.32Zm-0.07-3.09a0.79,0.79,0,0,0-.6.26,1.26,1.26,0,0,0-.3.73h1.73v0a1.12,1.12,0,0,0-.24-0.7A0.74,0.74,0,0,0,158.87,252.23Z" transform="translate(-93.07 -53.49)"/></g></g><path id="path9517" class="cls-19" d="M150.82,193.38v15.9" transform="translate(-93.07 -53.49)"/><circle id="circle9519" class="cls-15" cx="57.75" cy="136.43" r="1.63"/><circle id="circle9521" class="cls-15" cx="57.75" cy="159.25" r="1.63"/><circle id="circle9523" class="cls-15" cx="13.32" cy="159.25" r="1.63"/><circle id="circle9525" class="cls-15" cx="101.77" cy="159.25" r="1.63"/><path id="path9533" class="cls-25" d="M150.82,170.56v15.9" transform="translate(-93.07 -53.49)"/><g id="text9577" class="cls-12"><g class="cls-12"><path class="cls-13" d="M456.85,253.73a1.71,1.71,0,0,1-.54,1.14,1.78,1.78,0,0,1-1.21.4,1.64,1.64,0,0,1-1.32-.59,2.37,2.37,0,0,1-.5-1.58v-0.45a2.65,2.65,0,0,1,.23-1.14,1.72,1.72,0,0,1,.66-0.75,1.82,1.82,0,0,1,1-.26,1.68,1.68,0,0,1,1.18.41,1.73,1.73,0,0,1,.52,1.14h-0.62a1.33,1.33,0,0,0-.35-0.8,1,1,0,0,0-.74-0.25,1.09,1.09,0,0,0-.92.43,2,2,0,0,0-.33,1.23v0.45a2,2,0,0,0,.32,1.2,1,1,0,0,0,.88.45,1.18,1.18,0,0,0,.78-0.23,1.28,1.28,0,0,0,.36-0.8h0.62Z" transform="translate(-93.07 -53.49)"/><path class="cls-13" d="M459.38,253.33h-1.09v1.88h-0.61v-4.64h1.54a1.82,1.82,0,0,1,1.21.36,1.28,1.28,0,0,1,.42,1,1.25,1.25,0,0,1-.23.75,1.4,1.4,0,0,1-.65.48l1.09,2v0h-0.66Zm-1.09-.5h0.94a1.06,1.06,0,0,0,.72-0.24,0.8,0.8,0,0,0,.27-0.63,0.84,0.84,0,0,0-.26-0.66,1.08,1.08,0,0,0-.74-0.23h-0.94v1.76Z" transform="translate(-93.07 -53.49)"/><path class="cls-13" d="M462.49,250.57l1.52,3.78,1.52-3.78h0.79v4.64H465.7V253.4l0.06-1.95-1.52,3.75h-0.47l-1.52-3.75,0.06,1.94v1.81H461.7v-4.64h0.79Z" transform="translate(-93.07 -53.49)"/></g></g><g id="text9581" class="cls-12"><g class="cls-12"><path class="cls-13" d="M359.38,250.57l1.52,3.78,1.52-3.78h0.79v4.64H362.6V253.4l0.06-1.95-1.52,3.75h-0.47l-1.52-3.75,0.06,1.94v1.81h-0.61v-4.64h0.79Z" transform="translate(-93.07 -53.49)"/><path class="cls-13" d="M366.32,255.21a1.2,1.2,0,0,1-.08-0.36,1.31,1.31,0,0,1-1,.43,1.22,1.22,0,0,1-.84-0.29,0.93,0.93,0,0,1-.33-0.73,1,1,0,0,1,.41-0.84,1.92,1.92,0,0,1,1.15-.3h0.57v-0.27a0.66,0.66,0,0,0-.18-0.49,0.74,0.74,0,0,0-.54-0.18,0.87,0.87,0,0,0-.53.16,0.47,0.47,0,0,0-.21.39h-0.59a0.81,0.81,0,0,1,.18-0.5,1.25,1.25,0,0,1,.5-0.38,1.67,1.67,0,0,1,.69-0.14,1.37,1.37,0,0,1,.93.3,1.08,1.08,0,0,1,.35.82v1.59a2,2,0,0,0,.12.75v0.05h-0.62Zm-1-.45a1,1,0,0,0,.53-0.14,0.87,0.87,0,0,0,.36-0.37v-0.71h-0.46q-1.08,0-1.08.63a0.53,0.53,0,0,0,.18.43A0.71,0.71,0,0,0,365.34,254.76Z" transform="translate(-93.07 -53.49)"/><path class="cls-13" d="M368.3,251.76l0,0.43a1.26,1.26,0,0,1,1-.5,1,1,0,0,1,1.1,1.23v2.28h-0.59v-2.28a0.8,0.8,0,0,0-.17-0.55,0.68,0.68,0,0,0-.52-0.18,0.85,0.85,0,0,0-.5.15,1,1,0,0,0-.34.4v2.46h-0.59v-3.45h0.56Z" transform="translate(-93.07 -53.49)"/><path class="cls-13" d="M373.47,255.21a1.24,1.24,0,0,1-.08-0.36,1.31,1.31,0,0,1-1,.43,1.21,1.21,0,0,1-.84-0.29,0.93,0.93,0,0,1-.33-0.73,1,1,0,0,1,.41-0.84,1.93,1.93,0,0,1,1.15-.3h0.57v-0.27a0.66,0.66,0,0,0-.18-0.49,0.74,0.74,0,0,0-.54-0.18,0.86,0.86,0,0,0-.53.16,0.47,0.47,0,0,0-.21.39h-0.59a0.82,0.82,0,0,1,.18-0.5,1.25,1.25,0,0,1,.5-0.38,1.66,1.66,0,0,1,.69-0.14,1.36,1.36,0,0,1,.93.3,1.08,1.08,0,0,1,.35.82v1.59a1.93,1.93,0,0,0,.12.75v0.05h-0.62Zm-1-.45a1,1,0,0,0,.53-0.14,0.86,0.86,0,0,0,.36-0.37v-0.71h-0.46q-1.08,0-1.08.63a0.54,0.54,0,0,0,.19.43A0.71,0.71,0,0,0,372.49,254.76Z" transform="translate(-93.07 -53.49)"/><path class="cls-13" d="M374.75,253.45a2,2,0,0,1,.37-1.28,1.28,1.28,0,0,1,2,0l0-.38h0.54v3.36a1.4,1.4,0,0,1-.4,1.05,1.46,1.46,0,0,1-1.06.38,1.77,1.77,0,0,1-.73-0.16,1.25,1.25,0,0,1-.54-0.44l0.31-.35a1.15,1.15,0,0,0,.93.47,0.91,0.91,0,0,0,.67-0.24,0.93,0.93,0,0,0,.24-0.68v-0.3a1.21,1.21,0,0,1-1,.41,1.18,1.18,0,0,1-1-.49A2.13,2.13,0,0,1,374.75,253.45Zm0.59,0.07a1.55,1.55,0,0,0,.24.92,0.78,0.78,0,0,0,.67.33,0.86,0.86,0,0,0,.82-0.51v-1.57a0.87,0.87,0,0,0-.81-0.49,0.78,0.78,0,0,0-.67.33A1.68,1.68,0,0,0,375.34,253.52Z" transform="translate(-93.07 -53.49)"/><path class="cls-13" d="M380,255.27a1.51,1.51,0,0,1-1.14-.46,1.71,1.71,0,0,1-.44-1.23v-0.11a2.07,2.07,0,0,1,.2-0.92,1.52,1.52,0,0,1,.55-0.63,1.37,1.37,0,0,1,.76-0.23,1.29,1.29,0,0,1,1,.44,1.92,1.92,0,0,1,.37,1.27v0.25H379a1.22,1.22,0,0,0,.3.82,0.94,0.94,0,0,0,.72.31,1,1,0,0,0,.53-0.13,1.32,1.32,0,0,0,.38-0.34l0.36,0.28A1.45,1.45,0,0,1,380,255.27Zm-0.07-3.09a0.79,0.79,0,0,0-.6.26,1.25,1.25,0,0,0-.3.73h1.73v0a1.12,1.12,0,0,0-.24-0.7A0.74,0.74,0,0,0,379.9,252.18Z" transform="translate(-93.07 -53.49)"/><path class="cls-13" d="M383.67,252.29l-0.29,0a0.77,0.77,0,0,0-.79.49v2.45H382v-3.45h0.57v0.4a0.92,0.92,0,0,1,.82-0.46,0.61,0.61,0,0,1,.26,0v0.55Z" transform="translate(-93.07 -53.49)"/></g></g><path id="path9617" class="cls-19" d="M371.37,209.7c0-12.64,6.22-19.77,21.93-19.77h19m6.52,0H437.9c15.7,0,21.93,7.12,21.93,19.77" transform="translate(-93.07 -53.49)"/><path id="path9619" class="cls-19" d="M376,150h13.45" transform="translate(-93.07 -53.49)"/><path id="path9621" class="cls-8" d="M439,143.61V153c0,8.69-10.68,15.74-23.85,15.74s-23.85-7-23.85-15.74v-9.37c0,8.69,10.68,15.74,23.85,15.74S439,152.3,439,143.61Z" transform="translate(-93.07 -53.49)"/><ellipse id="ellipse9623" class="cls-9" cx="322.08" cy="90.16" rx="23.85" ry="15.7"/><g id="text9625" class="cls-12"><g class="cls-12"><path class="cls-20" d="M398.64,146.67v-5.8h1.71a2.23,2.23,0,0,1,1.41.38,1.36,1.36,0,0,1,.48,1.13,1.29,1.29,0,0,1-.25.78,1.34,1.34,0,0,1-.67.48,1.4,1.4,0,0,1,1.12,1.39,1.51,1.51,0,0,1-.5,1.2,2,2,0,0,1-1.38.43h-1.94Zm0.49-3.2h1.34a1.5,1.5,0,0,0,.95-0.29,1,1,0,0,0,.34-0.81,1,1,0,0,0-.35-0.82,1.73,1.73,0,0,0-1.05-.27h-1.22v2.19Zm0,0.41v2.37h1.47a1.47,1.47,0,0,0,1-.32A1.11,1.11,0,0,0,402,145a1.07,1.07,0,0,0-.35-0.85,1.42,1.42,0,0,0-1-.31h-1.51Z" transform="translate(-93.07 -53.49)"/><path class="cls-20" d="M406.24,146.67a2.27,2.27,0,0,1-.09-0.6,1.66,1.66,0,0,1-.64.5,2,2,0,0,1-.82.18,1.44,1.44,0,0,1-1-.35,1.13,1.13,0,0,1-.38-0.88,1.15,1.15,0,0,1,.52-1,2.51,2.51,0,0,1,1.46-.37h0.86v-0.49a1,1,0,0,0-.28-0.73,1.18,1.18,0,0,0-.83-0.26,1.3,1.3,0,0,0-.82.25,0.76,0.76,0,0,0-.33.61H403.4a1.11,1.11,0,0,1,.48-0.89,1.84,1.84,0,0,1,1.17-.38,1.68,1.68,0,0,1,1.14.36,1.29,1.29,0,0,1,.43,1v2a2.52,2.52,0,0,0,.13.94v0h-0.51Zm-1.5-.34a1.6,1.6,0,0,0,.85-0.23,1.36,1.36,0,0,0,.55-0.62v-0.95h-0.85a2.15,2.15,0,0,0-1.12.26,0.78,0.78,0,0,0-.4.69,0.77,0.77,0,0,0,.27.6A1,1,0,0,0,404.74,146.33Z" transform="translate(-93.07 -53.49)"/><path class="cls-20" d="M409.48,146.35a1.25,1.25,0,0,0,.83-0.28,1,1,0,0,0,.36-0.73h0.46a1.35,1.35,0,0,1-.25.72,1.54,1.54,0,0,1-.6.51,1.82,1.82,0,0,1-.81.18,1.66,1.66,0,0,1-1.34-.59,2.38,2.38,0,0,1-.5-1.58v-0.14a2.69,2.69,0,0,1,.22-1.13,1.72,1.72,0,0,1,.64-0.76,1.76,1.76,0,0,1,1-.27,1.66,1.66,0,0,1,1.17.42,1.54,1.54,0,0,1,.49,1.11h-0.46a1.17,1.17,0,0,0-.36-0.82,1.3,1.3,0,0,0-1.84.16,2.11,2.11,0,0,0-.36,1.31v0.14a2.06,2.06,0,0,0,.36,1.29A1.2,1.2,0,0,0,409.48,146.35Z" transform="translate(-93.07 -53.49)"/><path class="cls-20" d="M413.11,144.5l-0.54.53v1.64h-0.48v-6.11h0.48v3.91L413,144l1.65-1.62h0.6l-1.83,1.81,2,2.49h-0.57Z" transform="translate(-93.07 -53.49)"/><path class="cls-20" d="M417.56,144.31h-1.91v-0.4h1.91v0.4Z" transform="translate(-93.07 -53.49)"/><path class="cls-20" d="M420.08,146.75a1.87,1.87,0,0,1-1-.27,1.84,1.84,0,0,1-.69-0.75,2.34,2.34,0,0,1-.25-1.08v-0.17a2.54,2.54,0,0,1,.24-1.12,1.93,1.93,0,0,1,.67-0.78,1.66,1.66,0,0,1,.93-0.28,1.56,1.56,0,0,1,1.24.54,2.17,2.17,0,0,1,.46,1.46v0.27h-3.07v0.09a1.8,1.8,0,0,0,.42,1.22,1.34,1.34,0,0,0,1.06.49,1.55,1.55,0,0,0,.67-0.14,1.49,1.49,0,0,0,.53-0.45l0.3,0.23A1.74,1.74,0,0,1,420.08,146.75ZM420,142.69a1.19,1.19,0,0,0-.91.39,1.82,1.82,0,0,0-.45,1.06h2.58v-0.05a1.59,1.59,0,0,0-.35-1A1.1,1.1,0,0,0,420,142.69Z" transform="translate(-93.07 -53.49)"/><path class="cls-20" d="M423.08,142.36l0,0.74a1.71,1.71,0,0,1,.6-0.61,1.57,1.57,0,0,1,.8-0.21,1.29,1.29,0,0,1,1,.39,1.76,1.76,0,0,1,.34,1.17v2.83H425.4v-2.83a1.32,1.32,0,0,0-.25-0.86,1,1,0,0,0-.77-0.28,1.2,1.2,0,0,0-.78.28,1.61,1.61,0,0,0-.5.75v2.95h-0.47v-4.31h0.45Z" transform="translate(-93.07 -53.49)"/><path class="cls-20" d="M426.91,144.48a2.6,2.6,0,0,1,.45-1.6,1.44,1.44,0,0,1,1.22-.59,1.5,1.5,0,0,1,1.33.69v-2.42h0.47v6.11h-0.45l0-.57a1.54,1.54,0,0,1-1.35.65,1.44,1.44,0,0,1-1.2-.6,2.61,2.61,0,0,1-.46-1.62v-0.06Zm0.48,0.08a2.24,2.24,0,0,0,.33,1.3,1.07,1.07,0,0,0,.93.48,1.28,1.28,0,0,0,1.25-.78v-2a1.27,1.27,0,0,0-1.24-.84,1.08,1.08,0,0,0-.94.47A2.4,2.4,0,0,0,427.39,144.56Z" transform="translate(-93.07 -53.49)"/></g></g><circle id="circle9631" class="cls-15" cx="322.3" cy="136.43" r="1.63"/><circle id="circle9635" class="cls-15" cx="366.73" cy="159.25" r="1.63"/><circle id="circle9637" class="cls-15" cx="278.27" cy="159.25" r="1.63"/><path id="path9639" class="cls-25" d="M415.36,170.56v15.9" transform="translate(-93.07 -53.49)"/><path id="path9641" class="cls-19" d="M236.11,90V85.53C236.11,73,229.81,66,214.19,66H199.94" transform="translate(-93.07 -53.49)"/><circle id="circle9715" class="cls-15" cx="266.08" cy="12.51" r="1.63"/><path id="path9745" class="cls-19" d="M430.65,66H408.23" transform="translate(-93.07 -53.49)"/><circle id="circle9747" class="cls-15" cx="338.22" cy="12.51" r="1.63"/><circle id="circle9749" class="cls-15" cx="313.77" cy="12.51" r="1.63"/><path id="path9757" class="cls-19" d="M330.1,90V85.53C330.1,73,336.4,66,352,66h5.44" transform="translate(-93.07 -53.49)"/><g id="g9805"><path id="path9807" class="cls-14" d="M438.6,72.11H441v-9h3.67v9h3.67V55H452V72.11h3.67v-13h3.67v13h2.45" transform="translate(-93.07 -53.49)"/></g><g id="g9809"><path id="path9811" class="cls-14" d="M368.91,67.64h29.33" transform="translate(-93.07 -53.49)"/><path id="path9813" class="cls-6" d="M368.92,63.35c3.07,0.81,6.53-.75,8.12-4.67" transform="translate(-93.07 -53.49)"/><path id="path9815" class="cls-6" d="M377.05,58.68c2.64,6.5,10.4,6.5,13,0" transform="translate(-93.07 -53.49)"/><path id="path9817" class="cls-14" d="M377,58.67v13" transform="translate(-93.07 -53.49)"/><path id="path9819" class="cls-6" d="M398.22,63.35c-3.07.81-6.53-.75-8.12-4.67" transform="translate(-93.07 -53.49)"/><path id="path9821" class="cls-14" d="M390.09,58.67v13" transform="translate(-93.07 -53.49)"/></g><g id="text9823" class="cls-12"><g class="cls-12"><path class="cls-13" d="M374.63,85.91V81.27h1.52a1.76,1.76,0,0,1,1.13.31,1.12,1.12,0,0,1,.38.92,0.94,0.94,0,0,1-.19.57,1.2,1.2,0,0,1-.5.39,1.08,1.08,0,0,1,.59.4,1.15,1.15,0,0,1,.22.7,1.24,1.24,0,0,1-.4,1,1.67,1.67,0,0,1-1.14.36h-1.61Zm0.61-2.66h0.92a1,1,0,0,0,.64-0.2A0.68,0.68,0,0,0,377,82.5a0.66,0.66,0,0,0-.22-0.56,1.1,1.1,0,0,0-.68-0.17h-0.91v1.48Zm0,0.49v1.67h1a1,1,0,0,0,.67-0.22,0.85,0.85,0,0,0-.66-1.45h-1Z" transform="translate(-93.07 -53.49)"/><path class="cls-13" d="M380.26,83L380,83a0.77,0.77,0,0,0-.79.49v2.45H378.6V82.46h0.57v0.4A0.92,0.92,0,0,1,380,82.4a0.61,0.61,0,0,1,.26,0V83Z" transform="translate(-93.07 -53.49)"/><path class="cls-13" d="M380.81,81.55a0.35,0.35,0,0,1,.09-0.24,0.33,0.33,0,0,1,.26-0.1,0.33,0.33,0,0,1,.26.1,0.35,0.35,0,0,1,.09.24,0.34,0.34,0,0,1-.09.24,0.34,0.34,0,0,1-.26.1,0.33,0.33,0,0,1-.26-0.1A0.34,0.34,0,0,1,380.81,81.55Zm0.64,4.36h-0.59V82.46h0.59v3.45Z" transform="translate(-93.07 -53.49)"/><path class="cls-13" d="M382.24,84.16a2,2,0,0,1,.38-1.28,1.28,1.28,0,0,1,1.94-.07V81h0.59v4.89h-0.54l0-.37a1.2,1.2,0,0,1-1,.43,1.18,1.18,0,0,1-1-.49,2,2,0,0,1-.38-1.28v0Zm0.59,0.07a1.53,1.53,0,0,0,.24.92,0.78,0.78,0,0,0,.67.33,0.86,0.86,0,0,0,.82-0.5V83.39a0.87,0.87,0,0,0-.81-0.49,0.78,0.78,0,0,0-.67.33A1.68,1.68,0,0,0,382.83,84.22Z" transform="translate(-93.07 -53.49)"/><path class="cls-13" d="M385.92,84.16a2,2,0,0,1,.37-1.28,1.29,1.29,0,0,1,2,0l0-.38h0.54v3.36a1.4,1.4,0,0,1-.4,1.05,1.46,1.46,0,0,1-1.06.39,1.77,1.77,0,0,1-.73-0.16,1.25,1.25,0,0,1-.54-0.44l0.31-.35a1.15,1.15,0,0,0,.93.47,0.91,0.91,0,0,0,.67-0.24,0.93,0.93,0,0,0,.24-0.68v-0.3a1.21,1.21,0,0,1-1,.41,1.18,1.18,0,0,1-1-.49A2.13,2.13,0,0,1,385.92,84.16Zm0.59,0.07a1.55,1.55,0,0,0,.24.92,0.78,0.78,0,0,0,.67.33,0.86,0.86,0,0,0,.82-0.51V83.39a0.87,0.87,0,0,0-.81-0.49,0.78,0.78,0,0,0-.67.33A1.68,1.68,0,0,0,386.52,84.22Z" transform="translate(-93.07 -53.49)"/><path class="cls-13" d="M391.15,86a1.51,1.51,0,0,1-1.14-.46,1.71,1.71,0,0,1-.44-1.23V84.17a2.06,2.06,0,0,1,.2-0.92,1.52,1.52,0,0,1,.55-0.63,1.38,1.38,0,0,1,.76-0.23,1.29,1.29,0,0,1,1,.44,1.92,1.92,0,0,1,.37,1.27v0.25h-2.33a1.22,1.22,0,0,0,.3.82,0.94,0.94,0,0,0,.72.31,1,1,0,0,0,.53-0.13,1.32,1.32,0,0,0,.38-0.34l0.36,0.28A1.44,1.44,0,0,1,391.15,86Zm-0.07-3.09a0.79,0.79,0,0,0-.6.26,1.25,1.25,0,0,0-.3.73h1.73v0a1.12,1.12,0,0,0-.24-0.7A0.74,0.74,0,0,0,391.08,82.88Z" transform="translate(-93.07 -53.49)"/></g></g><g id="text9827" class="cls-12"><g class="cls-12"><path class="cls-13" d="M439.15,83.77h-2v1.64h2.33v0.5h-2.95V81.27h2.91v0.5h-2.3v1.49h2v0.5Z" transform="translate(-93.07 -53.49)"/><path class="cls-13" d="M441.29,83.72l0.76-1.26h0.69l-1.13,1.7,1.16,1.74H442.1l-0.8-1.29-0.8,1.29h-0.68L441,84.17l-1.13-1.7h0.68Z" transform="translate(-93.07 -53.49)"/><path class="cls-13" d="M444.69,85.49a0.85,0.85,0,0,0,.55-0.19,0.67,0.67,0,0,0,.26-0.48h0.56a1.06,1.06,0,0,1-.2.56,1.33,1.33,0,0,1-.5.43,1.44,1.44,0,0,1-.66.16,1.42,1.42,0,0,1-1.12-.47,1.87,1.87,0,0,1-.42-1.28v-0.1a2.08,2.08,0,0,1,.18-0.9,1.41,1.41,0,0,1,.53-0.61,1.51,1.51,0,0,1,.82-0.22,1.38,1.38,0,0,1,1,.35,1.24,1.24,0,0,1,.41.9H445.5a0.81,0.81,0,0,0-.25-0.55,0.79,0.79,0,0,0-.56-0.21,0.82,0.82,0,0,0-.7.32,1.52,1.52,0,0,0-.25.93v0.11a1.49,1.49,0,0,0,.25.92A0.83,0.83,0,0,0,444.69,85.49Z" transform="translate(-93.07 -53.49)"/><path class="cls-13" d="M447.31,82.88a1.25,1.25,0,0,1,1-.48,1,1,0,0,1,1.1,1.23v2.28h-0.59V83.63a0.79,0.79,0,0,0-.17-0.55,0.68,0.68,0,0,0-.52-0.18,0.85,0.85,0,0,0-.5.15,1,1,0,0,0-.34.4v2.46h-0.59V81h0.59v1.86Z" transform="translate(-93.07 -53.49)"/><path class="cls-13" d="M452.44,85.91a1.24,1.24,0,0,1-.08-0.36,1.31,1.31,0,0,1-1,.43,1.22,1.22,0,0,1-.84-0.29,0.93,0.93,0,0,1-.33-0.73,1,1,0,0,1,.41-0.84,1.93,1.93,0,0,1,1.15-.3h0.57V83.55a0.66,0.66,0,0,0-.18-0.49,0.74,0.74,0,0,0-.54-0.18,0.86,0.86,0,0,0-.53.16,0.47,0.47,0,0,0-.21.39h-0.59a0.82,0.82,0,0,1,.18-0.5,1.25,1.25,0,0,1,.5-0.38,1.68,1.68,0,0,1,.69-0.14,1.36,1.36,0,0,1,.93.3,1.08,1.08,0,0,1,.35.82V85.1a2,2,0,0,0,.12.75v0.05h-0.62Zm-1-.45a1,1,0,0,0,.53-0.14,0.87,0.87,0,0,0,.36-0.37V84.24h-0.46q-1.08,0-1.08.63a0.54,0.54,0,0,0,.18.43A0.71,0.71,0,0,0,451.46,85.46Z" transform="translate(-93.07 -53.49)"/><path class="cls-13" d="M454.42,82.46l0,0.43a1.25,1.25,0,0,1,1-.5,1,1,0,0,1,1.1,1.23v2.28H456V83.63a0.79,0.79,0,0,0-.17-0.55,0.68,0.68,0,0,0-.52-0.18,0.85,0.85,0,0,0-.5.15,1,1,0,0,0-.34.4v2.46h-0.59V82.46h0.56Z" transform="translate(-93.07 -53.49)"/><path class="cls-13" d="M457.32,84.16a2,2,0,0,1,.37-1.28,1.28,1.28,0,0,1,2,0l0-.38h0.54v3.36a1.4,1.4,0,0,1-.4,1.05,1.47,1.47,0,0,1-1.07.39,1.76,1.76,0,0,1-.73-0.16,1.26,1.26,0,0,1-.54-0.44l0.31-.35a1.15,1.15,0,0,0,.93.47,0.9,0.9,0,0,0,.67-0.24,0.93,0.93,0,0,0,.24-0.68v-0.3a1.21,1.21,0,0,1-1,.41,1.18,1.18,0,0,1-1-.49A2.13,2.13,0,0,1,457.32,84.16Zm0.59,0.07a1.54,1.54,0,0,0,.24.92,0.78,0.78,0,0,0,.67.33,0.86,0.86,0,0,0,.82-0.51V83.39a0.87,0.87,0,0,0-.81-0.49,0.78,0.78,0,0,0-.67.33A1.68,1.68,0,0,0,457.91,84.22Z" transform="translate(-93.07 -53.49)"/><path class="cls-13" d="M462.55,86a1.51,1.51,0,0,1-1.14-.46,1.71,1.71,0,0,1-.44-1.23V84.17a2.06,2.06,0,0,1,.2-0.92,1.53,1.53,0,0,1,.55-0.63,1.37,1.37,0,0,1,.76-0.23,1.29,1.29,0,0,1,1,.44,1.91,1.91,0,0,1,.37,1.27v0.25h-2.33a1.22,1.22,0,0,0,.3.82,0.94,0.94,0,0,0,.72.31,1,1,0,0,0,.53-0.13,1.34,1.34,0,0,0,.38-0.34l0.36,0.28A1.45,1.45,0,0,1,462.55,86Zm-0.07-3.09a0.78,0.78,0,0,0-.6.26,1.26,1.26,0,0,0-.3.73h1.73v0a1.12,1.12,0,0,0-.24-0.7A0.74,0.74,0,0,0,462.48,82.88Z" transform="translate(-93.07 -53.49)"/></g></g><g id="text9831" class="cls-12"><g class="cls-12"><path class="cls-20" d="M433.79,92.05h-1.9v1.66h2.18V94h-2.52V89.94h2.51v0.29h-2.17v1.53h1.9v0.29Z" transform="translate(-93.07 -53.49)"/><path class="cls-20" d="M437.67,92.73a1.45,1.45,0,0,1-.46,1,1.51,1.51,0,0,1-1,.34,1.43,1.43,0,0,1-.8-0.23,1.47,1.47,0,0,1-.54-0.64,2.27,2.27,0,0,1-.19-0.95V91.71a2.29,2.29,0,0,1,.19-1,1.45,1.45,0,0,1,.54-0.65,1.48,1.48,0,0,1,.82-0.23,1.45,1.45,0,0,1,1,.35,1.47,1.47,0,0,1,.44,1h-0.35a1,1,0,0,0-1.12-1,1.06,1.06,0,0,0-.88.41,1.79,1.79,0,0,0-.33,1.14v0.5a1.8,1.8,0,0,0,.32,1.12,1,1,0,0,0,.86.42A1.14,1.14,0,0,0,437,93.5a1.24,1.24,0,0,0,.34-0.77h0.35Z" transform="translate(-93.07 -53.49)"/><path class="cls-20" d="M441.52,94h-0.34l-2.33-3.47V94H438.5V89.94h0.35l2.33,3.47V89.94h0.34V94Z" transform="translate(-93.07 -53.49)"/><path class="cls-20" d="M444.55,91.78a2.62,2.62,0,0,1-.35-0.52,1.05,1.05,0,0,1-.11-0.46,0.9,0.9,0,0,1,.25-0.67,0.93,0.93,0,0,1,.68-0.25,0.88,0.88,0,0,1,.63.22,0.75,0.75,0,0,1,.24.57,1.07,1.07,0,0,1-.46.79l-0.45.35,1.11,1.3a1.72,1.72,0,0,0,.25-0.93h0.31a1.9,1.9,0,0,1-.36,1.17L446.86,94h-0.4l-0.35-.41a1.61,1.61,0,0,1-.51.34,1.54,1.54,0,0,1-.61.12,1.35,1.35,0,0,1-.92-0.3,1,1,0,0,1-.17-1.35,2.63,2.63,0,0,1,.61-0.59Zm0.43,2a1.18,1.18,0,0,0,.49-0.11,1.35,1.35,0,0,0,.43-0.31L444.77,92l0,0-0.13.1a1.2,1.2,0,0,0-.55.86,0.74,0.74,0,0,0,.25.59A1,1,0,0,0,445,93.77Zm-0.56-3a1.37,1.37,0,0,0,.38.8l0.36-.28a1.32,1.32,0,0,0,.29-0.28,0.59,0.59,0,0,0,.11-0.36,0.48,0.48,0,0,0-.15-0.36,0.55,0.55,0,0,0-.4-0.15,0.56,0.56,0,0,0-.43.18A0.64,0.64,0,0,0,444.42,90.79Z" transform="translate(-93.07 -53.49)"/><path class="cls-20" d="M449.18,93.71h2V94h-2.35V89.94h0.35v3.77Z" transform="translate(-93.07 -53.49)"/><path class="cls-20" d="M451.75,90.11a0.22,0.22,0,0,1,.06-0.16,0.22,0.22,0,0,1,.17-0.06,0.22,0.22,0,0,1,.17.06,0.22,0.22,0,0,1,.06.16,0.21,0.21,0,0,1-.06.16,0.23,0.23,0,0,1-.17.06,0.22,0.22,0,0,1-.17-0.06A0.22,0.22,0,0,1,451.75,90.11ZM452.14,94H451.8V91h0.33v3Z" transform="translate(-93.07 -53.49)"/><path class="cls-20" d="M452.91,92.46a1.81,1.81,0,0,1,.31-1.12,1,1,0,0,1,.86-0.41,1.05,1.05,0,0,1,.93.47l0-.41h0.31v4.17H455V93.62a1.1,1.1,0,0,1-.93.43,1,1,0,0,1-.85-0.42,1.83,1.83,0,0,1-.32-1.13v0Zm0.34,0.06a1.57,1.57,0,0,0,.24.92,0.75,0.75,0,0,0,.65.33,0.91,0.91,0,0,0,.87-0.52V91.77a1,1,0,0,0-.35-0.42,0.91,0.91,0,0,0-.51-0.15,0.76,0.76,0,0,0-.66.33A1.68,1.68,0,0,0,453.25,92.52Z" transform="translate(-93.07 -53.49)"/><path class="cls-20" d="M458.17,93.61a1.08,1.08,0,0,1-1,.44,0.93,0.93,0,0,1-.73-0.28,1.22,1.22,0,0,1-.26-0.83V91h0.33V92.9a0.7,0.7,0,0,0,.7.86,0.85,0.85,0,0,0,.92-0.6V91h0.33v3h-0.32V93.61Z" transform="translate(-93.07 -53.49)"/><path class="cls-20" d="M459.34,90.11A0.22,0.22,0,0,1,459.4,90a0.22,0.22,0,0,1,.17-0.06,0.22,0.22,0,0,1,.17.06,0.22,0.22,0,0,1,.06.16,0.21,0.21,0,0,1-.06.16,0.23,0.23,0,0,1-.17.06,0.22,0.22,0,0,1-.17-0.06A0.22,0.22,0,0,1,459.34,90.11ZM459.74,94H459.4V91h0.33v3Z" transform="translate(-93.07 -53.49)"/><path class="cls-20" d="M460.51,92.46a1.82,1.82,0,0,1,.31-1.12,1,1,0,0,1,.85-0.42,1,1,0,0,1,.93.48V89.72h0.33V94h-0.31v-0.4a1.08,1.08,0,0,1-.94.46,1,1,0,0,1-.84-0.42,1.82,1.82,0,0,1-.32-1.13v0Zm0.34,0.06a1.57,1.57,0,0,0,.23.91,0.75,0.75,0,0,0,.65.33,0.9,0.9,0,0,0,.88-0.54V91.8a0.89,0.89,0,0,0-.87-0.59,0.76,0.76,0,0,0-.66.33A1.68,1.68,0,0,0,460.84,92.52Z" transform="translate(-93.07 -53.49)"/><path class="cls-20" d="M463.79,90.11a0.22,0.22,0,0,1,.06-0.16,0.22,0.22,0,0,1,.17-0.06,0.22,0.22,0,0,1,.17.06,0.22,0.22,0,0,1,.06.16,0.21,0.21,0,0,1-.06.16,0.23,0.23,0,0,1-.17.06,0.22,0.22,0,0,1-.17-0.06A0.22,0.22,0,0,1,463.79,90.11ZM464.19,94h-0.33V91h0.33v3Z" transform="translate(-93.07 -53.49)"/><path class="cls-20" d="M465.61,90.21V91h0.62v0.27h-0.62v2a0.63,0.63,0,0,0,.09.37,0.35,0.35,0,0,0,.3.12l0.27,0V94a1.09,1.09,0,0,1-.36,0,0.6,0.6,0,0,1-.5-0.2,0.94,0.94,0,0,1-.16-0.59v-2h-0.55V91h0.55V90.21h0.33Z" transform="translate(-93.07 -53.49)"/><path class="cls-20" d="M467.88,93.52L468.76,91h0.36l-1.29,3.53-0.07.16a0.81,0.81,0,0,1-.77.55,0.93,0.93,0,0,1-.26,0V94.9l0.17,0a0.62,0.62,0,0,0,.4-0.12,0.92,0.92,0,0,0,.26-0.42l0.15-.41-1.14-3h0.37Z" transform="translate(-93.07 -53.49)"/></g><g class="cls-12"><path class="cls-20" d="M439.23,99.48v1.65h-0.34V97.07h1.38a1.46,1.46,0,0,1,1,.32,1.27,1.27,0,0,1,0,1.77,1.5,1.5,0,0,1-1,.31h-1Zm0-.29h1A1.1,1.1,0,0,0,441,99a0.85,0.85,0,0,0,.26-0.66,0.89,0.89,0,0,0-.26-0.67,1,1,0,0,0-.74-0.26h-1.06v1.82Z" transform="translate(-93.07 -53.49)"/><path class="cls-20" d="M443.71,98.4l-0.23,0a0.81,0.81,0,0,0-.53.17,1,1,0,0,0-.31.51v2.07h-0.33v-3h0.33v0.48a0.88,0.88,0,0,1,.85-0.54,0.55,0.55,0,0,1,.22,0v0.3Z" transform="translate(-93.07 -53.49)"/><path class="cls-20" d="M444,99.58a1.77,1.77,0,0,1,.17-0.78,1.27,1.27,0,0,1,1.17-.74,1.24,1.24,0,0,1,1,.42,1.63,1.63,0,0,1,.37,1.12v0.07a1.78,1.78,0,0,1-.17.79,1.26,1.26,0,0,1-.47.54,1.3,1.3,0,0,1-.7.19,1.24,1.24,0,0,1-1-.42,1.62,1.62,0,0,1-.37-1.12V99.58Zm0.33,0.09a1.37,1.37,0,0,0,.28.89,0.95,0.95,0,0,0,1.47,0,1.41,1.41,0,0,0,.28-0.92V99.58a1.53,1.53,0,0,0-.13-0.63,1,1,0,0,0-.36-0.44,0.92,0.92,0,0,0-.53-0.16,0.89,0.89,0,0,0-.73.35,1.41,1.41,0,0,0-.28.92v0.06Z" transform="translate(-93.07 -53.49)"/><path class="cls-20" d="M448.28,100.67l0.92-2.56h0.34l-1.12,3h-0.27l-1.13-3h0.34Z" transform="translate(-93.07 -53.49)"/><path class="cls-20" d="M450.06,97.24a0.22,0.22,0,0,1,.06-0.16,0.22,0.22,0,0,1,.17-0.06,0.22,0.22,0,0,1,.17.06,0.22,0.22,0,0,1,.06.16,0.21,0.21,0,0,1-.06.16,0.23,0.23,0,0,1-.17.06,0.22,0.22,0,0,1-.17-0.06A0.22,0.22,0,0,1,450.06,97.24Zm0.39,3.89h-0.33v-3h0.33v3Z" transform="translate(-93.07 -53.49)"/><path class="cls-20" d="M451.23,99.59a1.82,1.82,0,0,1,.31-1.12,1,1,0,0,1,.85-0.42,1,1,0,0,1,.93.48V96.85h0.33v4.28h-0.31v-0.4a1.08,1.08,0,0,1-.94.46,1,1,0,0,1-.84-0.42,1.82,1.82,0,0,1-.32-1.13v0Zm0.34,0.06a1.57,1.57,0,0,0,.23.91,0.75,0.75,0,0,0,.65.33,0.9,0.9,0,0,0,.88-0.54V98.94a0.89,0.89,0,0,0-.87-0.59,0.76,0.76,0,0,0-.66.33A1.68,1.68,0,0,0,451.57,99.65Z" transform="translate(-93.07 -53.49)"/><path class="cls-20" d="M455.7,101.19a1.29,1.29,0,0,1-1.18-.72,1.65,1.65,0,0,1-.17-0.76V99.59a1.77,1.77,0,0,1,.17-0.78,1.34,1.34,0,0,1,.47-0.55,1.16,1.16,0,0,1,.65-0.2,1.09,1.09,0,0,1,.87.38,1.52,1.52,0,0,1,.32,1v0.19h-2.15v0.06a1.27,1.27,0,0,0,.29.85,0.94,0.94,0,0,0,.74.34,1.09,1.09,0,0,0,.47-0.1,1,1,0,0,0,.37-0.31l0.21,0.16A1.22,1.22,0,0,1,455.7,101.19Zm-0.06-2.84a0.83,0.83,0,0,0-.63.28,1.27,1.27,0,0,0-.31.74h1.81v0a1.11,1.11,0,0,0-.25-0.71A0.77,0.77,0,0,0,455.64,98.34Z" transform="translate(-93.07 -53.49)"/><path class="cls-20" d="M458.88,98.4l-0.23,0a0.81,0.81,0,0,0-.53.17,1,1,0,0,0-.31.51v2.07h-0.33v-3h0.33v0.48a0.88,0.88,0,0,1,.85-0.54,0.55,0.55,0,0,1,.22,0v0.3Z" transform="translate(-93.07 -53.49)"/><path class="cls-20" d="M461.21,100.36a0.47,0.47,0,0,0-.2-0.4,1.53,1.53,0,0,0-.6-0.24,2.73,2.73,0,0,1-.62-0.19,0.83,0.83,0,0,1-.33-0.27,0.67,0.67,0,0,1-.11-0.38,0.72,0.72,0,0,1,.3-0.59,1.2,1.2,0,0,1,.76-0.23,1.24,1.24,0,0,1,.81.25,0.8,0.8,0,0,1,.3.65h-0.33a0.54,0.54,0,0,0-.22-0.44,1,1,0,0,0-1.09,0,0.45,0.45,0,0,0-.2.38,0.41,0.41,0,0,0,.17.35,1.76,1.76,0,0,0,.6.23,2.85,2.85,0,0,1,.66.22,0.85,0.85,0,0,1,.32.28,0.78,0.78,0,0,1-.2,1,1.31,1.31,0,0,1-.8.23,1.35,1.35,0,0,1-.85-0.25,0.79,0.79,0,0,1-.33-0.65h0.33a0.58,0.58,0,0,0,.25.46,1,1,0,0,0,.6.16,1,1,0,0,0,.56-0.15A0.46,0.46,0,0,0,461.21,100.36Z" transform="translate(-93.07 -53.49)"/></g></g></svg>